<svg width="99" height="24" viewBox="0 0 99 24" fill="none" xmlns="http://www.w3.org/2000/svg">
<g filter="url(#filter0_d_11911_7382)">
<path d="M4.15199 16V4.36364H8.7429C9.62547 4.36364 10.3774 4.5322 10.9986 4.86932C11.6198 5.20265 12.0933 5.66667 12.419 6.26136C12.7486 6.85227 12.9134 7.53409 12.9134 8.30682C12.9134 9.07955 12.7467 9.76136 12.4134 10.3523C12.08 10.9432 11.5971 11.4034 10.9645 11.733C10.3357 12.0625 9.57434 12.2273 8.6804 12.2273H5.75426V10.2557H8.28267C8.75616 10.2557 9.14631 10.1742 9.45312 10.0114C9.76373 9.8447 9.99479 9.61553 10.1463 9.32386C10.3016 9.02841 10.3793 8.68939 10.3793 8.30682C10.3793 7.92045 10.3016 7.58333 10.1463 7.29545C9.99479 7.00379 9.76373 6.77841 9.45312 6.61932C9.14252 6.45644 8.74858 6.375 8.27131 6.375H6.61222V16H4.15199ZM14.4659 16V7.27273H16.8125V8.79545H16.9034C17.0625 8.25379 17.3295 7.8447 17.7045 7.56818C18.0795 7.28788 18.5114 7.14773 19 7.14773C19.1212 7.14773 19.2519 7.1553 19.392 7.17045C19.5322 7.18561 19.6553 7.20644 19.7614 7.23295V9.38068C19.6477 9.34659 19.4905 9.31629 19.2898 9.28977C19.089 9.26326 18.9053 9.25 18.7386 9.25C18.3826 9.25 18.0644 9.32765 17.7841 9.48295C17.5076 9.63447 17.2879 9.84659 17.125 10.1193C16.9659 10.392 16.8864 10.7064 16.8864 11.0625V16H14.4659ZM24.5497 16.1705C23.6671 16.1705 22.9039 15.983 22.2599 15.608C21.6198 15.2292 21.1255 14.7027 20.777 14.0284C20.4285 13.3504 20.2543 12.5644 20.2543 11.6705C20.2543 10.7689 20.4285 9.98106 20.777 9.30682C21.1255 8.62879 21.6198 8.10227 22.2599 7.72727C22.9039 7.34848 23.6671 7.15909 24.5497 7.15909C25.4323 7.15909 26.1937 7.34848 26.8338 7.72727C27.4777 8.10227 27.974 8.62879 28.3224 9.30682C28.6709 9.98106 28.8452 10.7689 28.8452 11.6705C28.8452 12.5644 28.6709 13.3504 28.3224 14.0284C27.974 14.7027 27.4777 15.2292 26.8338 15.608C26.1937 15.983 25.4323 16.1705 24.5497 16.1705ZM24.5611 14.2955C24.9626 14.2955 25.2978 14.1818 25.5668 13.9545C25.8357 13.7235 26.0384 13.4091 26.1747 13.0114C26.3149 12.6136 26.3849 12.161 26.3849 11.6534C26.3849 11.1458 26.3149 10.6932 26.1747 10.2955C26.0384 9.89773 25.8357 9.58333 25.5668 9.35227C25.2978 9.12121 24.9626 9.00568 24.5611 9.00568C24.1558 9.00568 23.8149 9.12121 23.5384 9.35227C23.2656 9.58333 23.0592 9.89773 22.919 10.2955C22.7827 10.6932 22.7145 11.1458 22.7145 11.6534C22.7145 12.161 22.7827 12.6136 22.919 13.0114C23.0592 13.4091 23.2656 13.7235 23.5384 13.9545C23.8149 14.1818 24.1558 14.2955 24.5611 14.2955ZM30.419 19.2727V7.27273H32.8054V8.73864H32.9134C33.0194 8.50379 33.1728 8.26515 33.3736 8.02273C33.5781 7.77652 33.8433 7.57197 34.169 7.40909C34.4986 7.24242 34.9077 7.15909 35.3963 7.15909C36.0327 7.15909 36.6198 7.32576 37.1577 7.65909C37.6955 7.98864 38.1255 8.48674 38.4474 9.15341C38.7694 9.81629 38.9304 10.6477 38.9304 11.6477C38.9304 12.6212 38.7732 13.4432 38.4588 14.1136C38.1482 14.7803 37.724 15.286 37.1861 15.6307C36.652 15.9716 36.0535 16.142 35.3906 16.142C34.9209 16.142 34.5213 16.0644 34.1918 15.9091C33.866 15.7538 33.599 15.5587 33.3906 15.3239C33.1823 15.0852 33.0232 14.8447 32.9134 14.6023H32.8395V19.2727H30.419ZM32.7884 11.6364C32.7884 12.1553 32.8603 12.608 33.0043 12.9943C33.1482 13.3807 33.3565 13.6818 33.6293 13.8977C33.902 14.1098 34.2334 14.2159 34.6236 14.2159C35.0175 14.2159 35.3509 14.108 35.6236 13.892C35.8963 13.6723 36.1027 13.3693 36.2429 12.983C36.3868 12.5928 36.4588 12.1439 36.4588 11.6364C36.4588 11.1326 36.3887 10.6894 36.2486 10.3068C36.1084 9.92424 35.902 9.625 35.6293 9.40909C35.3565 9.19318 35.0213 9.08523 34.6236 9.08523C34.2296 9.08523 33.8963 9.18939 33.6236 9.39773C33.3546 9.60606 33.1482 9.90151 33.0043 10.2841C32.8603 10.6667 32.7884 11.1174 32.7884 11.6364Z" fill="black"/>
<path d="M46.902 7.71023C46.8565 7.25189 46.6615 6.89583 46.3168 6.64205C45.9721 6.38826 45.5043 6.26136 44.9134 6.26136C44.5118 6.26136 44.1728 6.31818 43.8963 6.43182C43.6198 6.54167 43.4077 6.69508 43.2599 6.89205C43.116 7.08902 43.044 7.3125 43.044 7.5625C43.0365 7.77083 43.08 7.95265 43.1747 8.10795C43.2732 8.26326 43.4077 8.39773 43.5781 8.51136C43.7486 8.62121 43.9455 8.7178 44.169 8.80114C44.3925 8.88068 44.6312 8.94886 44.8849 9.00568L45.9304 9.25568C46.438 9.36932 46.9039 9.52083 47.3281 9.71023C47.7524 9.89962 48.1198 10.1326 48.4304 10.4091C48.741 10.6856 48.9815 11.0114 49.152 11.3864C49.3262 11.7614 49.4152 12.1913 49.419 12.6761C49.4152 13.3883 49.2334 14.0057 48.8736 14.5284C48.5175 15.0473 48.0024 15.4508 47.3281 15.7386C46.6577 16.0227 45.849 16.1648 44.902 16.1648C43.9626 16.1648 43.1444 16.0208 42.4474 15.733C41.7543 15.4451 41.2126 15.0189 40.8224 14.4545C40.4361 13.8864 40.2334 13.1837 40.2145 12.3466H42.5952C42.6217 12.7367 42.7334 13.0625 42.9304 13.3239C43.1312 13.5814 43.3982 13.7765 43.7315 13.9091C44.0687 14.0379 44.4493 14.1023 44.8736 14.1023C45.2902 14.1023 45.652 14.0417 45.9588 13.9205C46.2694 13.7992 46.5099 13.6307 46.6804 13.4148C46.8509 13.1989 46.9361 12.9508 46.9361 12.6705C46.9361 12.4091 46.8584 12.1894 46.7031 12.0114C46.5516 11.8333 46.3281 11.6818 46.0327 11.5568C45.741 11.4318 45.383 11.3182 44.9588 11.2159L43.6918 10.8977C42.7107 10.6591 41.9361 10.286 41.3679 9.77841C40.7997 9.27083 40.5175 8.58712 40.5213 7.72727C40.5175 7.02273 40.705 6.4072 41.0838 5.88068C41.4664 5.35417 41.991 4.94318 42.6577 4.64773C43.3243 4.35227 44.0819 4.20455 44.9304 4.20455C45.794 4.20455 46.5478 4.35227 47.1918 4.64773C47.8395 4.94318 48.3433 5.35417 48.7031 5.88068C49.063 6.4072 49.2486 7.01705 49.2599 7.71023H46.902ZM55.6705 7.27273V9.09091H50.4148V7.27273H55.6705ZM51.608 5.18182H54.0284V13.3182C54.0284 13.5417 54.0625 13.7159 54.1307 13.8409C54.1989 13.9621 54.2936 14.0473 54.4148 14.0966C54.5398 14.1458 54.6837 14.1705 54.8466 14.1705C54.9602 14.1705 55.0739 14.161 55.1875 14.142C55.3011 14.1193 55.3883 14.1023 55.4489 14.0909L55.8295 15.892C55.7083 15.9299 55.5379 15.9735 55.3182 16.0227C55.0985 16.0758 54.8314 16.108 54.517 16.1193C53.9337 16.142 53.4223 16.0644 52.983 15.8864C52.5473 15.7083 52.2083 15.4318 51.9659 15.0568C51.7235 14.6818 51.6042 14.2083 51.608 13.6364V5.18182ZM57.2472 16V7.27273H59.5938V8.79545H59.6847C59.8438 8.25379 60.1108 7.8447 60.4858 7.56818C60.8608 7.28788 61.2926 7.14773 61.7812 7.14773C61.9025 7.14773 62.0331 7.1553 62.1733 7.17045C62.3134 7.18561 62.4366 7.20644 62.5426 7.23295V9.38068C62.429 9.34659 62.2718 9.31629 62.071 9.28977C61.8703 9.26326 61.6866 9.25 61.5199 9.25C61.1638 9.25 60.8456 9.32765 60.5653 9.48295C60.2888 9.63447 60.0691 9.84659 59.9062 10.1193C59.7472 10.392 59.6676 10.7064 59.6676 11.0625V16H57.2472ZM67.3651 16.1705C66.4673 16.1705 65.6946 15.9886 65.0469 15.625C64.4029 15.2576 63.9067 14.7386 63.5582 14.0682C63.2098 13.3939 63.0355 12.5966 63.0355 11.6761C63.0355 10.7784 63.2098 9.99053 63.5582 9.3125C63.9067 8.63447 64.3973 8.10606 65.0298 7.72727C65.6662 7.34848 66.4124 7.15909 67.2685 7.15909C67.8442 7.15909 68.3802 7.25189 68.8764 7.4375C69.3764 7.61932 69.812 7.89394 70.1832 8.26136C70.5582 8.62879 70.8499 9.09091 71.0582 9.64773C71.2666 10.2008 71.3707 10.8485 71.3707 11.5909V12.2557H64.0014V10.7557H69.0923C69.0923 10.4072 69.0166 10.0985 68.8651 9.82955C68.7135 9.56061 68.5033 9.35038 68.2344 9.19886C67.9692 9.04356 67.6605 8.96591 67.3082 8.96591C66.9408 8.96591 66.6151 9.05114 66.331 9.22159C66.0507 9.38826 65.831 9.61364 65.6719 9.89773C65.5128 10.178 65.4313 10.4905 65.4276 10.8352V12.2614C65.4276 12.6932 65.5071 13.0663 65.6662 13.3807C65.8291 13.6951 66.0582 13.9375 66.3537 14.108C66.6491 14.2784 66.9995 14.3636 67.4048 14.3636C67.6738 14.3636 67.92 14.3258 68.1435 14.25C68.367 14.1742 68.5582 14.0606 68.7173 13.9091C68.8764 13.7576 68.9976 13.572 69.081 13.3523L71.3196 13.5C71.206 14.0379 70.973 14.5076 70.6207 14.9091C70.2723 15.3068 69.8215 15.6174 69.2685 15.8409C68.7192 16.0606 68.0848 16.1705 67.3651 16.1705ZM75.4389 16.1648C74.8821 16.1648 74.3859 16.0682 73.9503 15.875C73.5147 15.678 73.17 15.3883 72.9162 15.0057C72.6662 14.6193 72.5412 14.1383 72.5412 13.5625C72.5412 13.0777 72.6302 12.6705 72.8082 12.3409C72.9863 12.0114 73.2287 11.7462 73.5355 11.5455C73.8423 11.3447 74.1908 11.1932 74.581 11.0909C74.9749 10.9886 75.3878 10.9167 75.8196 10.875C76.3272 10.822 76.7363 10.7727 77.0469 10.7273C77.3575 10.678 77.5829 10.6061 77.723 10.5114C77.8632 10.4167 77.9332 10.2765 77.9332 10.0909V10.0568C77.9332 9.69697 77.8196 9.41856 77.5923 9.22159C77.3688 9.02462 77.0507 8.92614 76.6378 8.92614C76.2022 8.92614 75.8556 9.02273 75.598 9.21591C75.3404 9.4053 75.17 9.64394 75.0866 9.93182L72.848 9.75C72.9616 9.2197 73.1851 8.76136 73.5185 8.375C73.8518 7.98485 74.2817 7.68561 74.8082 7.47727C75.3385 7.26515 75.9522 7.15909 76.6491 7.15909C77.134 7.15909 77.598 7.21591 78.0412 7.32955C78.4882 7.44318 78.884 7.61932 79.2287 7.85795C79.5772 8.09659 79.8518 8.40341 80.0526 8.77841C80.2533 9.14962 80.3537 9.5947 80.3537 10.1136V16H78.0582V14.7898H77.9901C77.8499 15.0625 77.6624 15.303 77.4276 15.5114C77.1927 15.7159 76.9105 15.8769 76.581 15.9943C76.2514 16.108 75.8707 16.1648 75.4389 16.1648ZM76.1321 14.4943C76.4882 14.4943 76.8026 14.4242 77.0753 14.2841C77.348 14.1402 77.562 13.947 77.7173 13.7045C77.8726 13.4621 77.9503 13.1875 77.9503 12.8807V11.9545C77.8745 12.0038 77.7704 12.0492 77.6378 12.0909C77.509 12.1288 77.3632 12.1648 77.2003 12.1989C77.0374 12.2292 76.8745 12.2576 76.7116 12.2841C76.5488 12.3068 76.401 12.3277 76.2685 12.3466C75.9844 12.3883 75.7363 12.4545 75.5241 12.5455C75.312 12.6364 75.1473 12.7595 75.0298 12.9148C74.9124 13.0663 74.8537 13.2557 74.8537 13.483C74.8537 13.8125 74.973 14.0644 75.2116 14.2386C75.4541 14.4091 75.7609 14.4943 76.1321 14.4943ZM82.2315 16V7.27273H84.5384V8.8125H84.6406C84.8224 8.30114 85.1255 7.89773 85.5497 7.60227C85.974 7.30682 86.4815 7.15909 87.0724 7.15909C87.6709 7.15909 88.1804 7.30871 88.6009 7.60795C89.0213 7.90341 89.3016 8.30492 89.4418 8.8125H89.5327C89.7107 8.3125 90.0327 7.91288 90.4986 7.61364C90.9683 7.31061 91.5232 7.15909 92.1634 7.15909C92.9777 7.15909 93.6387 7.41856 94.1463 7.9375C94.6577 8.45265 94.9134 9.18371 94.9134 10.1307V16H92.4986V10.608C92.4986 10.1231 92.3698 9.75947 92.1122 9.51705C91.8546 9.27462 91.5327 9.15341 91.1463 9.15341C90.7069 9.15341 90.3641 9.29356 90.1179 9.57386C89.8717 9.85038 89.7486 10.2159 89.7486 10.6705V16H87.402V10.5568C87.402 10.1288 87.2789 9.78788 87.0327 9.53409C86.7902 9.2803 86.4702 9.15341 86.0724 9.15341C85.8035 9.15341 85.5611 9.22159 85.3452 9.35795C85.133 9.49053 84.9645 9.67803 84.8395 9.92045C84.7145 10.1591 84.652 10.4394 84.652 10.7614V16H82.2315Z" fill="#5598D0"/>
</g>
<defs>
<filter id="filter0_d_11911_7382" x="0.1521" y="0.204544" width="98.7612" height="23.0682" filterUnits="userSpaceOnUse" color-interpolation-filters="sRGB">
<feFlood flood-opacity="0" result="BackgroundImageFix"/>
<feColorMatrix in="SourceAlpha" type="matrix" values="0 0 0 0 0 0 0 0 0 0 0 0 0 0 0 0 0 0 127 0" result="hardAlpha"/>
<feOffset/>
<feGaussianBlur stdDeviation="2"/>
<feComposite in2="hardAlpha" operator="out"/>
<feColorMatrix type="matrix" values="0 0 0 0 0 0 0 0 0 0 0 0 0 0 0 0 0 0 0.24 0"/>
<feBlend mode="normal" in2="BackgroundImageFix" result="effect1_dropShadow_11911_7382"/>
<feBlend mode="normal" in="SourceGraphic" in2="effect1_dropShadow_11911_7382" result="shape"/>
</filter>
</defs>
</svg>
