<svg width="12" height="12" viewBox="0 0 12 12" fill="none" xmlns="http://www.w3.org/2000/svg">
<path fill-rule="evenodd" clip-rule="evenodd" d="M6.00008 0.666748C6.36827 0.666748 6.66675 0.965225 6.66675 1.33341V5.33341H10.6667C11.0349 5.33341 11.3334 5.63189 11.3334 6.00008C11.3334 6.36827 11.0349 6.66675 10.6667 6.66675H6.66675V10.6667C6.66675 11.0349 6.36827 11.3334 6.00008 11.3334C5.63189 11.3334 5.33341 11.0349 5.33341 10.6667V6.66675H1.33341C0.965225 6.66675 0.666748 6.36827 0.666748 6.00008C0.666748 5.63189 0.965225 5.33341 1.33341 5.33341H5.33341V1.33341C5.33341 0.965225 5.63189 0.666748 6.00008 0.666748Z" fill="white"/>
</svg>
