<svg width="22" height="22" viewBox="0 0 18 18" fill="none" xmlns="http://www.w3.org/2000/svg">
<path fill-rule="evenodd" clip-rule="evenodd" d="M8.99999 2.18181C5.23441 2.18181 2.18181 5.23441 2.18181 8.99999C2.18181 12.7656 5.23441 15.8182 8.99999 15.8182C12.7656 15.8182 15.8182 12.7656 15.8182 8.99999C15.8182 5.23441 12.7656 2.18181 8.99999 2.18181ZM0.666656 8.99999C0.666656 4.39762 4.39762 0.666656 8.99999 0.666656C13.6024 0.666656 17.3333 4.39762 17.3333 8.99999C17.3333 13.6024 13.6024 17.3333 8.99999 17.3333C4.39762 17.3333 0.666656 13.6024 0.666656 8.99999ZM9.19551 5.98811C8.84284 5.92762 8.48015 5.9939 8.17166 6.17519C7.86317 6.35649 7.62881 6.64112 7.51007 6.97866C7.37122 7.37335 6.93871 7.58076 6.54402 7.44191C6.14933 7.30307 5.94193 6.87056 6.08077 6.47587C6.31825 5.80079 6.78699 5.23153 7.40396 4.86893C8.02093 4.50633 8.74632 4.37379 9.45166 4.49477C10.157 4.61575 10.7967 4.98246 11.2576 5.52994C11.7184 6.07731 11.9706 6.77005 11.9697 7.48553C11.9693 8.64489 11.1098 9.41052 10.4959 9.81973C10.1659 10.0397 9.84129 10.2015 9.60215 10.3078C9.48151 10.3614 9.37991 10.4021 9.30671 10.43C9.27004 10.444 9.24032 10.4548 9.21868 10.4625L9.19237 10.4717L9.18399 10.4746L9.18104 10.4756L9.17987 10.476C9.17965 10.476 9.17892 10.4763 8.93936 9.75757L9.17892 10.4763C8.782 10.6086 8.35297 10.3941 8.22066 9.99714C8.08851 9.60068 8.30236 9.1722 8.69838 9.03934C8.69872 9.03923 8.69906 9.03912 8.6994 9.039L8.71109 9.03489C8.72274 9.03075 8.74184 9.02382 8.76732 9.01411C8.81841 8.99465 8.89437 8.96432 8.98679 8.92324C9.17379 8.84013 9.41734 8.71782 9.65549 8.55905C10.1779 8.21076 10.4545 7.84025 10.4545 7.48484L10.4545 7.48371C10.455 7.1259 10.3289 6.77944 10.0985 6.5057C9.86805 6.23196 9.54818 6.04861 9.19551 5.98811ZM8.24241 12.7879C8.24241 12.3695 8.58159 12.0303 8.99999 12.0303H9.00757C9.42596 12.0303 9.76514 12.3695 9.76514 12.7879C9.76514 13.2063 9.42596 13.5454 9.00757 13.5454H8.99999C8.58159 13.5454 8.24241 13.2063 8.24241 12.7879Z" fill="#11181C"/>
</svg>
