<svg width="22" height="20" viewBox="0 0 22 20" fill="none" xmlns="http://www.w3.org/2000/svg">
<path fill-rule="evenodd" clip-rule="evenodd" d="M11 13C11.5523 13 12 13.4477 12 14V19C12 19.5523 11.5523 20 11 20C10.4477 20 10 19.5523 10 19V14C10 13.4477 10.4477 13 11 13Z" fill="#71717A"/>
<path fill-rule="evenodd" clip-rule="evenodd" d="M15 11C15.5523 11 16 11.4477 16 12V19C16 19.5523 15.5523 20 15 20C14.4477 20 14 19.5523 14 19V12C14 11.4477 14.4477 11 15 11Z" fill="#71717A"/>
<path fill-rule="evenodd" clip-rule="evenodd" d="M19 7C19.5523 7 20 7.44772 20 8V19C20 19.5523 19.5523 20 19 20C18.4477 20 18 19.5523 18 19V8C18 7.44772 18.4477 7 19 7Z" fill="#71717A"/>
<path fill-rule="evenodd" clip-rule="evenodd" d="M21.7071 0.292893C22.0976 0.683417 22.0976 1.31658 21.7071 1.70711L13.062 10.3522C12.9228 10.4917 12.7569 10.6028 12.5749 10.6783C12.3927 10.754 12.1973 10.7929 12 10.7929C11.8027 10.7929 11.6073 10.754 11.4251 10.6783C11.2431 10.6028 11.0777 10.4921 10.9385 10.3527L8.00047 7.41469L1.70705 13.7072C1.3165 14.0977 0.683335 14.0976 0.29284 13.7071C-0.0976549 13.3165 -0.0976072 12.6833 0.292946 12.2928L6.93995 5.64684C7.22124 5.36564 7.60275 5.20761 8.0005 5.20761C8.39825 5.20761 8.77971 5.36558 9.061 5.64679L12 8.58579L20.2929 0.292893C20.6834 -0.0976311 21.3166 -0.0976311 21.7071 0.292893Z" fill="#71717A"/>
<path fill-rule="evenodd" clip-rule="evenodd" d="M3 15C3.55228 15 4 15.4477 4 16V19C4 19.5523 3.55228 20 3 20C2.44772 20 2 19.5523 2 19V16C2 15.4477 2.44772 15 3 15Z" fill="#71717A"/>
<path fill-rule="evenodd" clip-rule="evenodd" d="M7 11C7.55228 11 8 11.4477 8 12V19C8 19.5523 7.55228 20 7 20C6.44772 20 6 19.5523 6 19V12C6 11.4477 6.44772 11 7 11Z" fill="#71717A"/>
</svg>
