<svg width="40" height="40" viewBox="0 0 40 40" fill="none" xmlns="http://www.w3.org/2000/svg">
<path d="M0 20C0 8.95431 8.95431 0 20 0C31.0457 0 40 8.95431 40 20C40 31.0457 31.0457 40 20 40C8.95431 40 0 31.0457 0 20Z" fill="#5DA7E5"/>
<path fill-rule="evenodd" clip-rule="evenodd" d="M19.9997 13.3333C20.4599 13.3333 20.833 13.7064 20.833 14.1667V19.1667H25.833C26.2932 19.1667 26.6663 19.5398 26.6663 20C26.6663 20.4602 26.2932 20.8333 25.833 20.8333H20.833V25.8333C20.833 26.2936 20.4599 26.6667 19.9997 26.6667C19.5394 26.6667 19.1663 26.2936 19.1663 25.8333V20.8333H14.1663C13.7061 20.8333 13.333 20.4602 13.333 20C13.333 19.5398 13.7061 19.1667 14.1663 19.1667H19.1663V14.1667C19.1663 13.7064 19.5394 13.3333 19.9997 13.3333Z" fill="white"/>
</svg>
