<svg width="156" height="152" viewBox="0 0 156 152" fill="none" xmlns="http://www.w3.org/2000/svg">
<g filter="url(#filter0_d_11830_15608)">
<rect x="16" y="14" width="124" height="120" rx="8" fill="white" shape-rendering="crispEdges"/>
<g opacity="0.2" filter="url(#filter1_f_11830_15608)">
<rect x="40" y="44" width="76" height="76" rx="38" fill="url(#paint0_radial_11830_15608)"/>
</g>
<g clip-path="url(#clip0_11830_15608)">
<g opacity="0.9" filter="url(#filter2_i_11830_15608)">
<rect x="115" y="23" width="24" height="103" rx="4" fill="url(#paint1_radial_11830_15608)"/>
</g>
<rect opacity="0.9" x="139.24" y="29" width="1" height="43" transform="rotate(37.6068 139.24 29)" fill="#5DA7E5"/>
<rect opacity="0.9" x="135.24" y="20" width="1" height="43" transform="rotate(37.6068 135.24 20)" fill="#5DA7E5"/>
<rect opacity="0.9" x="139.24" y="42" width="1" height="43" transform="rotate(37.6068 139.24 42)" fill="#5DA7E5"/>
<rect opacity="0.9" x="140.565" y="53" width="1" height="48.449" transform="rotate(37.6068 140.565 53)" fill="#5DA7E5"/>
<rect opacity="0.9" x="141.59" y="63" width="1" height="48.4885" transform="rotate(37.6068 141.59 63)" fill="#5DA7E5"/>
<rect opacity="0.9" x="141.59" y="75" width="1" height="48.4885" transform="rotate(37.6068 141.59 75)" fill="#5DA7E5"/>
<rect opacity="0.9" x="141.59" y="87" width="1" height="48.4885" transform="rotate(37.6068 141.59 87)" fill="#5DA7E5"/>
<rect opacity="0.9" x="141.59" y="100" width="1" height="36.6342" transform="rotate(37.6068 141.59 100)" fill="#5DA7E5"/>
<rect opacity="0.9" x="141.59" y="113" width="1" height="19.1619" transform="rotate(37.6068 141.59 113)" fill="#5DA7E5"/>
</g>
<g clip-path="url(#clip1_11830_15608)">
<g opacity="0.9" filter="url(#filter3_i_11830_15608)">
<rect x="92" y="35" width="24" height="91" rx="4" fill="url(#paint2_radial_11830_15608)"/>
</g>
<rect opacity="0.9" x="114.24" y="33" width="1" height="43" transform="rotate(37.6068 114.24 33)" fill="#5DA7E5"/>
<rect opacity="0.9" x="108.24" y="29" width="1" height="43" transform="rotate(37.6068 108.24 29)" fill="#5DA7E5"/>
<rect opacity="0.9" x="116.24" y="42" width="1" height="43" transform="rotate(37.6068 116.24 42)" fill="#5DA7E5"/>
<rect opacity="0.9" x="117.565" y="53" width="1" height="48.449" transform="rotate(37.6068 117.565 53)" fill="#5DA7E5"/>
<rect opacity="0.9" x="118.59" y="63" width="1" height="48.4885" transform="rotate(37.6068 118.59 63)" fill="#5DA7E5"/>
<rect opacity="0.9" x="118.59" y="75" width="1" height="48.4885" transform="rotate(37.6068 118.59 75)" fill="#5DA7E5"/>
<rect opacity="0.9" x="118.59" y="87" width="1" height="48.4885" transform="rotate(37.6068 118.59 87)" fill="#5DA7E5"/>
<rect opacity="0.9" x="118.59" y="100" width="1" height="36.6342" transform="rotate(37.6068 118.59 100)" fill="#5DA7E5"/>
<rect opacity="0.9" x="118.59" y="113" width="1" height="19.1619" transform="rotate(37.6068 118.59 113)" fill="#5DA7E5"/>
</g>
<g filter="url(#filter4_di_11830_15608)">
<rect x="70" y="44" width="16" height="82" rx="4" fill="url(#paint3_linear_11830_15608)"/>
</g>
<g clip-path="url(#clip2_11830_15608)">
<g opacity="0.9" filter="url(#filter5_i_11830_15608)">
<rect x="47" y="55" width="24" height="71" rx="4" fill="url(#paint4_radial_11830_15608)"/>
</g>
<rect opacity="0.9" x="61.2402" y="44" width="1" height="43" transform="rotate(37.6068 61.2402 44)" fill="#5DA7E5"/>
<rect opacity="0.9" x="66.2402" y="49" width="1" height="43" transform="rotate(37.6068 66.2402 49)" fill="#5DA7E5"/>
<rect opacity="0.9" x="72.5654" y="53" width="1" height="48.449" transform="rotate(37.6068 72.5654 53)" fill="#5DA7E5"/>
<rect opacity="0.9" x="73.5896" y="63" width="1" height="48.4885" transform="rotate(37.6068 73.5896 63)" fill="#5DA7E5"/>
<rect opacity="0.9" x="73.5896" y="75" width="1" height="48.4885" transform="rotate(37.6068 73.5896 75)" fill="#5DA7E5"/>
<rect opacity="0.9" x="73.5896" y="87" width="1" height="48.4885" transform="rotate(37.6068 73.5896 87)" fill="#5DA7E5"/>
<rect opacity="0.9" x="73.5896" y="100" width="1" height="36.6342" transform="rotate(37.6068 73.5896 100)" fill="#5DA7E5"/>
<rect opacity="0.9" x="73.5896" y="113" width="1" height="19.1619" transform="rotate(37.6068 73.5896 113)" fill="#5DA7E5"/>
</g>
<g clip-path="url(#clip3_11830_15608)">
<g opacity="0.9" filter="url(#filter6_i_11830_15608)">
<rect x="24" y="87" width="24" height="39" rx="4" fill="url(#paint5_radial_11830_15608)"/>
</g>
<rect opacity="0.9" x="50.5896" y="63" width="1" height="48.4885" transform="rotate(37.6068 50.5896 63)" fill="#5DA7E5"/>
<rect opacity="0.9" x="50.5896" y="75" width="1" height="48.4885" transform="rotate(37.6068 50.5896 75)" fill="#5DA7E5"/>
<rect opacity="0.9" x="50.5896" y="87" width="1" height="48.4885" transform="rotate(37.6068 50.5896 87)" fill="#5DA7E5"/>
<rect opacity="0.9" x="50.5896" y="100" width="1" height="36.6342" transform="rotate(37.6068 50.5896 100)" fill="#5DA7E5"/>
<rect opacity="0.9" x="50.5896" y="113" width="1" height="19.1619" transform="rotate(37.6068 50.5896 113)" fill="#5DA7E5"/>
</g>
<path d="M60.3722 23.8453C60 24.5685 60 25.5148 60 27.4073V33.4906C60 35.3832 60 36.3295 60.3722 37.0527C60.6991 37.6889 61.2216 38.206 61.8644 38.5296C62.5951 38.898 63.5512 38.898 65.4634 38.898H72.5274C72.9449 38.898 73.1532 38.898 73.3504 38.9444C73.5237 38.9858 73.691 39.0543 73.8438 39.1472C74.0154 39.2511 74.163 39.3973 74.4584 39.6896L75.5682 40.788C76.2443 41.4572 76.5823 41.7917 76.9724 41.9176C77.3156 42.0275 77.6844 42.0275 78.0276 41.9176C78.4177 41.7917 78.7557 41.4572 79.4318 40.788L80.5416 39.6896C80.837 39.3973 80.9846 39.2511 81.1562 39.1472C81.309 39.0543 81.4755 38.9858 81.6496 38.9444C81.8468 38.898 82.0551 38.898 82.4734 38.898H89.5366C91.4488 38.898 92.4049 38.898 93.1356 38.5296C93.7784 38.206 94.3009 37.6889 94.6278 37.0527C95 36.3295 95 35.3832 95 33.4906V27.4073C95 25.5148 95 24.5685 94.6278 23.8453C94.3009 23.209 93.7784 22.692 93.1356 22.3684C92.4049 22 91.4488 22 89.5366 22H65.4634C63.5512 22 62.5951 22 61.8644 22.3684C61.2216 22.692 60.6991 23.209 60.3722 23.8453Z" fill="#5DA7E5"/>
<path d="M77.5149 32.6506V31.603L80.6009 26.7273H81.4744V28.2188H80.9418L78.8643 31.5107V31.5675H83.1719V32.6506H77.5149ZM80.9844 34V32.331L80.9986 31.8622V26.7273H82.2415V34H80.9844ZM84.3775 34V26.7273H85.695V30.0689H85.7837L88.6211 26.7273H90.2298L87.4173 29.9908L90.2546 34H88.6708L86.5011 30.8821L85.695 31.8338V34H84.3775Z" fill="white"/>
<g opacity="0.3" filter="url(#filter7_d_11830_15608)">
<rect x="62" y="24" width="12" height="12" rx="6" fill="url(#paint6_linear_11830_15608)" shape-rendering="crispEdges"/>
</g>
<path d="M67.8057 28.1381C67.9473 27.954 68.2246 27.954 68.3662 28.1381L70.0979 30.3909C70.2769 30.6237 70.1111 30.9611 69.8176 30.9611H66.3543C66.0608 30.9611 65.895 30.6237 66.0741 30.3909L67.8057 28.1381Z" fill="white"/>
</g>
<defs>
<filter id="filter0_d_11830_15608" x="0" y="0" width="156" height="152" filterUnits="userSpaceOnUse" color-interpolation-filters="sRGB">
<feFlood flood-opacity="0" result="BackgroundImageFix"/>
<feColorMatrix in="SourceAlpha" type="matrix" values="0 0 0 0 0 0 0 0 0 0 0 0 0 0 0 0 0 0 127 0" result="hardAlpha"/>
<feOffset dy="2"/>
<feGaussianBlur stdDeviation="8"/>
<feComposite in2="hardAlpha" operator="out"/>
<feColorMatrix type="matrix" values="0 0 0 0 0.152941 0 0 0 0 0.27451 0 0 0 0 0.376471 0 0 0 0.24 0"/>
<feBlend mode="normal" in2="BackgroundImageFix" result="effect1_dropShadow_11830_15608"/>
<feBlend mode="normal" in="SourceGraphic" in2="effect1_dropShadow_11830_15608" result="shape"/>
</filter>
<filter id="filter1_f_11830_15608" x="20" y="24" width="116" height="116" filterUnits="userSpaceOnUse" color-interpolation-filters="sRGB">
<feFlood flood-opacity="0" result="BackgroundImageFix"/>
<feBlend mode="normal" in="SourceGraphic" in2="BackgroundImageFix" result="shape"/>
<feGaussianBlur stdDeviation="10" result="effect1_foregroundBlur_11830_15608"/>
</filter>
<filter id="filter2_i_11830_15608" x="115" y="23" width="24" height="104.11" filterUnits="userSpaceOnUse" color-interpolation-filters="sRGB">
<feFlood flood-opacity="0" result="BackgroundImageFix"/>
<feBlend mode="normal" in="SourceGraphic" in2="BackgroundImageFix" result="shape"/>
<feColorMatrix in="SourceAlpha" type="matrix" values="0 0 0 0 0 0 0 0 0 0 0 0 0 0 0 0 0 0 127 0" result="hardAlpha"/>
<feOffset dy="1.11024"/>
<feGaussianBlur stdDeviation="0.55512"/>
<feComposite in2="hardAlpha" operator="arithmetic" k2="-1" k3="1"/>
<feColorMatrix type="matrix" values="0 0 0 0 1 0 0 0 0 1 0 0 0 0 1 0 0 0 0.09 0"/>
<feBlend mode="normal" in2="shape" result="effect1_innerShadow_11830_15608"/>
</filter>
<filter id="filter3_i_11830_15608" x="92" y="35" width="24" height="92.1102" filterUnits="userSpaceOnUse" color-interpolation-filters="sRGB">
<feFlood flood-opacity="0" result="BackgroundImageFix"/>
<feBlend mode="normal" in="SourceGraphic" in2="BackgroundImageFix" result="shape"/>
<feColorMatrix in="SourceAlpha" type="matrix" values="0 0 0 0 0 0 0 0 0 0 0 0 0 0 0 0 0 0 127 0" result="hardAlpha"/>
<feOffset dy="1.11024"/>
<feGaussianBlur stdDeviation="0.55512"/>
<feComposite in2="hardAlpha" operator="arithmetic" k2="-1" k3="1"/>
<feColorMatrix type="matrix" values="0 0 0 0 1 0 0 0 0 1 0 0 0 0 1 0 0 0 0.09 0"/>
<feBlend mode="normal" in2="shape" result="effect1_innerShadow_11830_15608"/>
</filter>
<filter id="filter4_di_11830_15608" x="64.74" y="42.685" width="26.5199" height="93.8349" filterUnits="userSpaceOnUse" color-interpolation-filters="sRGB">
<feFlood flood-opacity="0" result="BackgroundImageFix"/>
<feColorMatrix in="SourceAlpha" type="matrix" values="0 0 0 0 0 0 0 0 0 0 0 0 0 0 0 0 0 0 127 0" result="hardAlpha"/>
<feOffset dy="5.25997"/>
<feGaussianBlur stdDeviation="2.62999"/>
<feComposite in2="hardAlpha" operator="out"/>
<feColorMatrix type="matrix" values="0 0 0 0 0.945098 0 0 0 0 0.407843 0 0 0 0 0.133333 0 0 0 0.07 0"/>
<feBlend mode="normal" in2="BackgroundImageFix" result="effect1_dropShadow_11830_15608"/>
<feBlend mode="normal" in="SourceGraphic" in2="effect1_dropShadow_11830_15608" result="shape"/>
<feColorMatrix in="SourceAlpha" type="matrix" values="0 0 0 0 0 0 0 0 0 0 0 0 0 0 0 0 0 0 127 0" result="hardAlpha"/>
<feOffset dy="-1.31499"/>
<feGaussianBlur stdDeviation="0.657495"/>
<feComposite in2="hardAlpha" operator="arithmetic" k2="-1" k3="1"/>
<feColorMatrix type="matrix" values="0 0 0 0 1 0 0 0 0 1 0 0 0 0 1 0 0 0 0.29 0"/>
<feBlend mode="normal" in2="shape" result="effect2_innerShadow_11830_15608"/>
</filter>
<filter id="filter5_i_11830_15608" x="47" y="55" width="24" height="72.1102" filterUnits="userSpaceOnUse" color-interpolation-filters="sRGB">
<feFlood flood-opacity="0" result="BackgroundImageFix"/>
<feBlend mode="normal" in="SourceGraphic" in2="BackgroundImageFix" result="shape"/>
<feColorMatrix in="SourceAlpha" type="matrix" values="0 0 0 0 0 0 0 0 0 0 0 0 0 0 0 0 0 0 127 0" result="hardAlpha"/>
<feOffset dy="1.11024"/>
<feGaussianBlur stdDeviation="0.55512"/>
<feComposite in2="hardAlpha" operator="arithmetic" k2="-1" k3="1"/>
<feColorMatrix type="matrix" values="0 0 0 0 1 0 0 0 0 1 0 0 0 0 1 0 0 0 0.09 0"/>
<feBlend mode="normal" in2="shape" result="effect1_innerShadow_11830_15608"/>
</filter>
<filter id="filter6_i_11830_15608" x="24" y="87" width="24" height="40.1102" filterUnits="userSpaceOnUse" color-interpolation-filters="sRGB">
<feFlood flood-opacity="0" result="BackgroundImageFix"/>
<feBlend mode="normal" in="SourceGraphic" in2="BackgroundImageFix" result="shape"/>
<feColorMatrix in="SourceAlpha" type="matrix" values="0 0 0 0 0 0 0 0 0 0 0 0 0 0 0 0 0 0 127 0" result="hardAlpha"/>
<feOffset dy="1.11024"/>
<feGaussianBlur stdDeviation="0.55512"/>
<feComposite in2="hardAlpha" operator="arithmetic" k2="-1" k3="1"/>
<feColorMatrix type="matrix" values="0 0 0 0 1 0 0 0 0 1 0 0 0 0 1 0 0 0 0.09 0"/>
<feBlend mode="normal" in2="shape" result="effect1_innerShadow_11830_15608"/>
</filter>
<filter id="filter7_d_11830_15608" x="61.0787" y="24" width="13.8425" height="13.8425" filterUnits="userSpaceOnUse" color-interpolation-filters="sRGB">
<feFlood flood-opacity="0" result="BackgroundImageFix"/>
<feColorMatrix in="SourceAlpha" type="matrix" values="0 0 0 0 0 0 0 0 0 0 0 0 0 0 0 0 0 0 127 0" result="hardAlpha"/>
<feOffset dy="0.92126"/>
<feGaussianBlur stdDeviation="0.46063"/>
<feComposite in2="hardAlpha" operator="out"/>
<feColorMatrix type="matrix" values="0 0 0 0 0 0 0 0 0 0 0 0 0 0 0 0 0 0 0.25 0"/>
<feBlend mode="normal" in2="BackgroundImageFix" result="effect1_dropShadow_11830_15608"/>
<feBlend mode="normal" in="SourceGraphic" in2="effect1_dropShadow_11830_15608" result="shape"/>
</filter>
<radialGradient id="paint0_radial_11830_15608" cx="0" cy="0" r="1" gradientUnits="userSpaceOnUse" gradientTransform="translate(78 82) scale(35.4554 38)">
<stop offset="0.0959834" stop-color="#FFAE85"/>
<stop offset="0.25" stop-color="#F16822"/>
<stop offset="0.81" stop-color="#F16822" stop-opacity="0"/>
</radialGradient>
<radialGradient id="paint1_radial_11830_15608" cx="0" cy="0" r="1" gradientUnits="userSpaceOnUse" gradientTransform="translate(127 23) scale(30.7721 132.064)">
<stop stop-color="white"/>
<stop offset="0.565" stop-color="#5DA7E5" stop-opacity="0.66"/>
</radialGradient>
<radialGradient id="paint2_radial_11830_15608" cx="0" cy="0" r="1" gradientUnits="userSpaceOnUse" gradientTransform="translate(104 35) scale(30.7721 116.677)">
<stop stop-color="white"/>
<stop offset="1" stop-color="#5DA7E5" stop-opacity="0.66"/>
</radialGradient>
<linearGradient id="paint3_linear_11830_15608" x1="75.3871" y1="44" x2="52.0376" y2="50.5369" gradientUnits="userSpaceOnUse">
<stop stop-color="#92CDFF"/>
<stop offset="1" stop-color="#5DA7E5"/>
</linearGradient>
<radialGradient id="paint4_radial_11830_15608" cx="0" cy="0" r="1" gradientUnits="userSpaceOnUse" gradientTransform="translate(59 55) scale(30.7721 91.0341)">
<stop stop-color="white"/>
<stop offset="1" stop-color="#5DA7E5" stop-opacity="0.66"/>
</radialGradient>
<radialGradient id="paint5_radial_11830_15608" cx="0" cy="0" r="1" gradientUnits="userSpaceOnUse" gradientTransform="translate(36 87) scale(30.7721 50.0046)">
<stop stop-color="white"/>
<stop offset="1" stop-color="#5DA7E5" stop-opacity="0.66"/>
</radialGradient>
<linearGradient id="paint6_linear_11830_15608" x1="75.0864" y1="28.1406" x2="60.9136" y2="31.8594" gradientUnits="userSpaceOnUse">
<stop stop-color="white" stop-opacity="0.7"/>
<stop offset="1" stop-color="white"/>
</linearGradient>
<clipPath id="clip0_11830_15608">
<rect x="115" y="53" width="17" height="73" rx="4" fill="white"/>
</clipPath>
<clipPath id="clip1_11830_15608">
<rect x="92" y="62" width="17" height="64" rx="4" fill="white"/>
</clipPath>
<clipPath id="clip2_11830_15608">
<rect x="47" y="76" width="17" height="50" rx="4" fill="white"/>
</clipPath>
<clipPath id="clip3_11830_15608">
<rect x="24" y="98" width="17" height="28" rx="4" fill="white"/>
</clipPath>
</defs>
</svg>
