<svg width="20" height="20" viewBox="0 0 20 20" fill="none" xmlns="http://www.w3.org/2000/svg">
  <path fill-rule="evenodd" clip-rule="evenodd" d="M0 2C0 0.89543 0.89543 0 2 0H7C8.10457 0 9 0.89543 9 2V9C9 10.1046 8.10457 11 7 11H2C0.895431 11 0 10.1046 0 9V2ZM7 2H2V9H7V2ZM11 2C11 0.89543 11.8954 0 13 0H18C19.1046 0 20 0.89543 20 2V5C20 6.10457 19.1046 7 18 7H13C11.8954 7 11 6.10457 11 5V2ZM18 2H13V5H18V2ZM11 11C11 9.89543 11.8954 9 13 9H18C19.1046 9 20 9.89543 20 11V18C20 19.1046 19.1046 20 18 20H13C11.8954 20 11 19.1046 11 18V11ZM18 11H13V18H18V11ZM0 15C0 13.8954 0.89543 13 2 13H7C8.10457 13 9 13.8954 9 15V18C9 19.1046 8.10457 20 7 20H2C0.89543 20 0 19.1046 0 18V15ZM7 15H2V18H7V15Z" fill="currentColor" />
</svg>