<svg width="14" height="16" viewBox="0 0 14 16" fill="none" xmlns="http://www.w3.org/2000/svg">
<path fill-rule="evenodd" clip-rule="evenodd" d="M5.22132 2.22136C5.06489 2.3778 4.99992 2.55011 4.99992 2.66663V3.33329H8.99992V2.66663C8.99992 2.55011 8.93495 2.3778 8.77851 2.22136C8.62208 2.06493 8.44976 1.99996 8.33325 1.99996H5.66659C5.55007 1.99996 5.37776 2.06493 5.22132 2.22136ZM10.3333 3.33329V2.66663C10.3333 2.11647 10.0649 1.62212 9.72132 1.27855C9.37776 0.934991 8.88341 0.666626 8.33325 0.666626H5.66659C5.11643 0.666626 4.62208 0.934991 4.27851 1.27855C3.93495 1.62212 3.66659 2.11647 3.66659 2.66663V3.33329H0.999919C0.631729 3.33329 0.333252 3.63177 0.333252 3.99996C0.333252 4.36815 0.631729 4.66663 0.999919 4.66663H1.66659V13.3333C1.66659 13.8834 1.93495 14.3778 2.27851 14.7214C2.62208 15.0649 3.11643 15.3333 3.66659 15.3333H10.3333C10.8834 15.3333 11.3778 15.0649 11.7213 14.7214C12.0649 14.3778 12.3333 13.8834 12.3333 13.3333V4.66663H12.9999C13.3681 4.66663 13.6666 4.36815 13.6666 3.99996C13.6666 3.63177 13.3681 3.33329 12.9999 3.33329H10.3333ZM2.99992 4.66663V13.3333C2.99992 13.4498 3.06489 13.6221 3.22132 13.7786C3.37776 13.935 3.55007 14 3.66659 14H10.3333C10.4498 14 10.6221 13.935 10.7785 13.7786C10.9349 13.6221 10.9999 13.4498 10.9999 13.3333V4.66663H2.99992ZM5.66659 6.66663C6.03478 6.66663 6.33325 6.9651 6.33325 7.33329V11.3333C6.33325 11.7015 6.03478 12 5.66659 12C5.2984 12 4.99992 11.7015 4.99992 11.3333V7.33329C4.99992 6.9651 5.2984 6.66663 5.66659 6.66663ZM8.33325 6.66663C8.70144 6.66663 8.99992 6.9651 8.99992 7.33329V11.3333C8.99992 11.7015 8.70144 12 8.33325 12C7.96506 12 7.66659 11.7015 7.66659 11.3333V7.33329C7.66659 6.9651 7.96506 6.66663 8.33325 6.66663Z" fill="#71717A"/>
</svg>
