<svg width="13" height="13" viewBox="0 0 13 13" fill="none" xmlns="http://www.w3.org/2000/svg">
<path fill-rule="evenodd" clip-rule="evenodd" d="M9.13911 0.938068C9.52665 0.550803 10.0521 0.333252 10.6 0.333252C11.1481 0.333252 11.6738 0.550997 12.0614 0.938585C12.449 1.32617 12.6667 1.85186 12.6667 2.39999C12.6667 2.94797 12.4491 3.47351 12.0617 3.86107C12.0616 3.86118 12.0618 3.86096 12.0617 3.86107L11.2191 4.7067C11.1957 4.74126 11.1687 4.77411 11.1381 4.80473C11.108 4.83476 11.0759 4.86132 11.042 4.88442L6.47225 9.47055C6.34715 9.59609 6.17722 9.66666 6 9.66666H4C3.63181 9.66666 3.33333 9.36818 3.33333 8.99999V6.99999C3.33333 6.82277 3.4039 6.65284 3.52944 6.52774L8.11556 1.95797C8.13866 1.92413 8.16523 1.89195 8.19526 1.86192C8.22588 1.8313 8.25873 1.80429 8.29329 1.78087L9.1386 0.938585C9.13877 0.938413 9.13894 0.938241 9.13911 0.938068ZM8.67416 3.28362L4.66667 7.27683V8.33332H5.72316L9.71636 4.32583L8.67416 3.28362ZM10.6575 3.38134L9.61865 2.3425L10.0814 1.88139C10.2189 1.74385 10.4055 1.66659 10.6 1.66659C10.7945 1.66659 10.9811 1.74385 11.1186 1.88139C11.2561 2.01893 11.3334 2.20548 11.3334 2.39999C11.3334 2.5945 11.2561 2.78105 11.1186 2.91859L10.6575 3.38134ZM0.585786 3.58578C0.960859 3.2107 1.46957 2.99999 2 2.99999H2.66667C3.03486 2.99999 3.33333 3.29847 3.33333 3.66666C3.33333 4.03485 3.03486 4.33332 2.66667 4.33332H2C1.82319 4.33332 1.65362 4.40356 1.5286 4.52858C1.40357 4.65361 1.33333 4.82318 1.33333 4.99999V11C1.33333 11.1768 1.40357 11.3464 1.5286 11.4714C1.65362 11.5964 1.82319 11.6667 2 11.6667H8C8.17681 11.6667 8.34638 11.5964 8.4714 11.4714C8.59643 11.3464 8.66667 11.1768 8.66667 11V10.3333C8.66667 9.96513 8.96514 9.66666 9.33333 9.66666C9.70152 9.66666 10 9.96513 10 10.3333V11C10 11.5304 9.78928 12.0391 9.41421 12.4142C9.03914 12.7893 8.53043 13 8 13H2C1.46957 13 0.960859 12.7893 0.585786 12.4142C0.210714 12.0391 0 11.5304 0 11V4.99999C0 4.46956 0.210714 3.96085 0.585786 3.58578Z" fill="#71717A"/>
</svg>
