<svg width="16" height="12" viewBox="0 0 16 12" fill="none" xmlns="http://www.w3.org/2000/svg">
<path fill-rule="evenodd" clip-rule="evenodd" d="M2.07452 5.99984C2.1292 6.10467 2.2014 6.23652 2.29157 6.38801C2.53424 6.79569 2.90292 7.33866 3.40516 7.87954C4.41003 8.96171 5.91206 9.99984 7.99996 9.99984C10.0879 9.99984 11.5899 8.96171 12.5948 7.87954C13.097 7.33866 13.4657 6.79569 13.7084 6.38801C13.7985 6.23652 13.8707 6.10467 13.9254 5.99984C13.8707 5.895 13.7985 5.76316 13.7084 5.61166C13.4657 5.20398 13.097 4.66101 12.5948 4.12014C11.5899 3.03797 10.0879 1.99984 7.99996 1.99984C5.91206 1.99984 4.41003 3.03797 3.40516 4.12014C2.90292 4.66101 2.53424 5.20398 2.29157 5.61166C2.2014 5.76316 2.1292 5.895 2.07452 5.99984ZM14.6666 5.99984C15.2794 5.73722 15.2793 5.73695 15.2792 5.73666L15.2782 5.73434L15.2762 5.72975L15.2699 5.71556C15.2647 5.70391 15.2575 5.68792 15.2483 5.66787C15.2297 5.62779 15.203 5.57145 15.1679 5.50117C15.0976 5.36071 14.9935 5.16397 14.8541 4.92968C14.5759 4.46236 14.1529 3.83866 13.5718 3.21287C12.41 1.96171 10.5787 0.666504 7.99996 0.666504C5.4212 0.666504 3.58989 1.96171 2.4281 3.21287C1.847 3.83866 1.42402 4.46236 1.14585 4.92968C1.00639 5.16397 0.902292 5.36071 0.832062 5.50117C0.796922 5.57145 0.770186 5.62779 0.751673 5.66787C0.742415 5.68792 0.735206 5.70391 0.730025 5.71556L0.723768 5.72975L0.721774 5.73434L0.721059 5.736L0.720772 5.73666C0.720648 5.73695 0.720531 5.73722 1.33329 5.99984L0.720772 5.73666C0.6489 5.90436 0.64866 6.09475 0.720531 6.26245L1.33329 5.99984C0.720531 6.26245 0.720408 6.26216 0.720531 6.26245L0.721059 6.26368L0.721774 6.26533L0.723768 6.26992L0.730025 6.28411C0.735206 6.29576 0.742415 6.31176 0.751673 6.3318C0.770186 6.37188 0.796922 6.42822 0.832062 6.4985C0.902292 6.63896 1.00639 6.8357 1.14585 7.06999C1.42402 7.53731 1.847 8.16101 2.4281 8.7868C3.58989 10.038 5.4212 11.3332 7.99996 11.3332C10.5787 11.3332 12.41 10.038 13.5718 8.7868C14.1529 8.16101 14.5759 7.53731 14.8541 7.06999C14.9935 6.8357 15.0976 6.63896 15.1679 6.4985C15.203 6.42822 15.2297 6.37188 15.2483 6.3318C15.2575 6.31176 15.2647 6.29576 15.2699 6.28411L15.2762 6.26992L15.2782 6.26533L15.2792 6.26301C15.2793 6.26272 15.2794 6.26245 14.6666 5.99984ZM14.6666 5.99984L15.2792 6.26301C15.351 6.09531 15.351 5.90436 15.2792 5.73666L14.6666 5.99984ZM7.99996 4.6665C7.26358 4.6665 6.66663 5.26346 6.66663 5.99984C6.66663 6.73622 7.26358 7.33317 7.99996 7.33317C8.73634 7.33317 9.33329 6.73622 9.33329 5.99984C9.33329 5.26346 8.73634 4.6665 7.99996 4.6665ZM5.33329 5.99984C5.33329 4.52708 6.5272 3.33317 7.99996 3.33317C9.47272 3.33317 10.6666 4.52708 10.6666 5.99984C10.6666 7.4726 9.47272 8.6665 7.99996 8.6665C6.5272 8.6665 5.33329 7.4726 5.33329 5.99984Z" fill="#5DA7E5"/>
</svg>
