<svg width="34" height="34" viewBox="0 0 34 34" fill="none" xmlns="http://www.w3.org/2000/svg">
<path d="M14.7158 21.7124V33L5.47385 32.9999C4.37796 32.9999 1.67477 32.2693 1.19989 29.0912V5.09131C1.49213 2.242 3.61084 1.07306 5.31185 1H29.145C32.3961 1.3653 33.1267 3.99542 33.1998 5.23743V28.9086C32.7249 32.4519 29.9486 32.9268 29.4007 32.9999H19.6968V21.7853H23.4099L24.3596 17.073H19.7569V13.6758C20.1587 11.7397 21.8756 11.6301 22.0583 11.6301H24.3231L24.2866 7.42931C16.4327 6.07761 14.7158 10.3516 14.7158 12.3973V17.1096H10.6245V21.7124H14.7158Z" fill="#5DA7E5" stroke="#5DA7E5"/>
</svg>
