<svg width="24" height="24" viewBox="0 0 48 48" fill="none" xmlns="http://www.w3.org/2000/svg">
  <circle cx="24" cy="24" r="24" fill="#013B71" />
  <mask id="mask0_4609_27026" style="mask-type:alpha" maskUnits="userSpaceOnUse" x="12" y="12" width="24" height="24">
    <rect x="12" y="12" width="24" height="24" fill="#D9D9D9" />
  </mask>
  <g mask="url(#mask0_4609_27026)">
    <path d="M23.0011 32C22.7177 32 22.4802 31.9042 22.2886 31.7125C22.0969 31.5208 22.0011 31.2833 22.0011 31V25L16.2011 17.6C15.9511 17.2667 15.9136 16.9167 16.0886 16.55C16.2636 16.1833 16.5677 16 17.0011 16H31.0011C31.4344 16 31.7386 16.1833 31.9136 16.55C32.0886 16.9167 32.0511 17.2667 31.8011 17.6L26.0011 25V31C26.0011 31.2833 25.9052 31.5208 25.7136 31.7125C25.5219 31.9042 25.2844 32 25.0011 32H23.0011Z" fill="#FBFBFB" />
  </g>
</svg>