<svg width="36" height="36" viewBox="0 0 36 36" fill="none" xmlns="http://www.w3.org/2000/svg">
<g filter="url(#filter0_d_11591_1894)">
<rect x="2" y="1" width="32" height="32" rx="16" fill="white"/>
<rect x="2.5" y="1.5" width="31" height="31" rx="15.5" stroke="#F4F4F5"/>
<path fill-rule="evenodd" clip-rule="evenodd" d="M12 11.6667C12 11.2985 12.2985 11 12.6667 11H23.3333C23.7015 11 24 11.2985 24 11.6667V13.1147C23.9999 13.645 23.7891 14.1538 23.4141 14.5287C23.414 14.5288 23.4141 14.5287 23.4141 14.5287L20.6667 17.2761V21.6667C20.6667 21.9536 20.483 22.2084 20.2108 22.2991L16.2108 23.6325C16.0075 23.7002 15.784 23.6661 15.6102 23.5408C15.4363 23.4155 15.3333 23.2143 15.3333 23V17.5911L12.52 14.4964C12.1855 14.1284 12.0001 13.6488 12 13.1514V11.6667ZM13.3333 12.3333V13.1513C13.3333 13.1512 13.3333 13.1513 13.3333 13.1513C13.3334 13.317 13.3952 13.4769 13.5066 13.5996C13.5066 13.5995 13.5066 13.5996 13.5066 13.5996L16.4933 16.8849C16.6049 17.0076 16.6667 17.1675 16.6667 17.3333V22.0751L19.3333 21.1862V17C19.3333 16.8232 19.4036 16.6536 19.5286 16.5286L22.4713 13.5859C22.5963 13.461 22.6666 13.2914 22.6667 13.1147C22.6667 13.1146 22.6667 13.1147 22.6667 13.1147V12.3333H13.3333Z" fill="#71717A"/>
</g>
<defs>
<filter id="filter0_d_11591_1894" x="0" y="0" width="36" height="36" filterUnits="userSpaceOnUse" color-interpolation-filters="sRGB">
<feFlood flood-opacity="0" result="BackgroundImageFix"/>
<feColorMatrix in="SourceAlpha" type="matrix" values="0 0 0 0 0 0 0 0 0 0 0 0 0 0 0 0 0 0 127 0" result="hardAlpha"/>
<feOffset dy="1"/>
<feGaussianBlur stdDeviation="1"/>
<feColorMatrix type="matrix" values="0 0 0 0 0 0 0 0 0 0 0 0 0 0 0 0 0 0 0.05 0"/>
<feBlend mode="normal" in2="BackgroundImageFix" result="effect1_dropShadow_11591_1894"/>
<feBlend mode="normal" in="SourceGraphic" in2="effect1_dropShadow_11591_1894" result="shape"/>
</filter>
</defs>
</svg>
