<?xml version="1.0" encoding="UTF-8"?>
<svg xmlns="http://www.w3.org/2000/svg" xmlns:xlink="http://www.w3.org/1999/xlink" width="120px" height="117px" viewBox="0 0 120 117" version="1.1">
<g id="surface1">
<path style=" stroke:none;fill-rule:nonzero;fill:rgb(76.862746%,46.666667%,26.274511%);fill-opacity:1;" d="M 98.164062 27.9375 L 104.808594 37.933594 L 30.722656 85.816406 C 29.230469 86.777344 27.519531 87.164062 25.871094 87.027344 C 25.5625 86.996094 25.253906 86.953125 24.949219 86.890625 C 23.027344 86.496094 21.261719 85.375 20.097656 83.628906 C 17.777344 80.136719 18.769531 75.445312 22.308594 73.15625 L 93.695312 27.019531 C 95.1875 26.050781 97.191406 26.464844 98.164062 27.9375 Z M 98.164062 27.9375 "/>
<path style=" stroke:none;fill-rule:nonzero;fill:rgb(66.666669%,41.176471%,23.529412%);fill-opacity:1;" d="M 103.914062 36.585938 L 104.808594 37.933594 L 30.722656 85.816406 C 29.230469 86.777344 27.519531 87.164062 25.871094 87.027344 C 25.5625 86.996094 25.253906 86.953125 24.949219 86.890625 C 23.722656 86.640625 22.558594 86.09375 21.574219 85.273438 C 21.640625 85.296875 21.703125 85.324219 21.765625 85.347656 C 24.476562 86.34375 27.507812 85.96875 29.921875 84.402344 Z M 103.914062 36.585938 "/>
<path style=" stroke:none;fill-rule:nonzero;fill:rgb(88.627452%,53.725493%,27.843139%);fill-opacity:1;" d="M 113.6875 36 L 152.375 94.226562 C 153.351562 95.699219 152.9375 97.675781 151.441406 98.636719 L 73.011719 149.324219 C 69.433594 151.640625 64.628906 150.652344 62.285156 147.121094 L 20.097656 83.628906 C 21.261719 85.375 23.027344 86.496094 24.949219 86.890625 C 26.871094 87.285156 28.949219 86.960938 30.722656 85.816406 L 109.21875 35.085938 C 110.707031 34.117188 112.707031 34.53125 113.6875 36 Z M 113.6875 36 "/>
<path style=" stroke:none;fill-rule:nonzero;fill:rgb(48.235294%,78.823531%,48.235294%);fill-opacity:1;" d="M 32.777344 84.484375 L 34.253906 65.433594 L 36.402344 37.796875 C 36.480469 36.769531 37.386719 36.003906 38.425781 36.082031 L 55.011719 37.335938 L 46.882812 75.367188 Z M 32.777344 84.484375 "/>
<path style=" stroke:none;fill-rule:nonzero;fill:rgb(70.19608%,87.843138%,54.901963%);fill-opacity:1;" d="M 53.425781 41.570312 L 43.441406 75.28125 L 42.589844 78.140625 L 36.960938 81.785156 L 37.042969 80.714844 L 38.4375 62.730469 L 39.761719 45.65625 C 42.449219 45.859375 44.796875 43.875 45.007812 41.222656 C 45.011719 41.125 45.019531 41.03125 45.019531 40.9375 L 51.742188 41.441406 Z M 53.425781 41.570312 "/>
<path style=" stroke:none;fill-rule:nonzero;fill:rgb(43.921569%,72.941178%,43.921569%);fill-opacity:1;" d="M 55.011719 37.335938 L 48.039062 69.96875 L 43.441406 75.28125 L 53.425781 41.570312 L 51.742188 41.441406 L 53.324219 37.210938 Z M 55.011719 37.335938 "/>
<path style=" stroke:none;fill-rule:nonzero;fill:rgb(62.7451%,78.823531%,47.450981%);fill-opacity:1;" d="M 53.425781 41.570312 L 43.441406 75.28125 L 38.886719 80.53125 L 36.539062 82.050781 L 37.042969 80.714844 L 37.410156 79.730469 L 37.488281 79.511719 L 51.742188 41.441406 Z M 53.425781 41.570312 "/>
<path style=" stroke:none;fill-rule:nonzero;fill:rgb(48.235294%,78.823531%,48.235294%);fill-opacity:1;" d="M 77.835938 34.539062 L 39.476562 78.851562 L 41.109375 74.496094 L 58.019531 29.304688 C 58.375 28.34375 59.460938 27.847656 60.4375 28.207031 L 76.210938 33.945312 Z M 77.835938 34.539062 "/>
<path style=" stroke:none;fill-rule:nonzero;fill:rgb(70.19608%,87.843138%,54.901963%);fill-opacity:1;" d="M 74.792969 38.058594 L 46.90625 70.265625 L 48.535156 65.90625 L 59.070312 37.773438 C 61.597656 38.699219 64.410156 37.421875 65.339844 34.925781 C 65.375 34.835938 65.40625 34.742188 65.433594 34.652344 L 73.160156 37.464844 Z M 74.792969 38.058594 "/>
<path style=" stroke:none;fill-rule:nonzero;fill:rgb(48.235294%,78.823531%,48.235294%);fill-opacity:1;" d="M 99.417969 41.417969 L 87.257812 31.179688 L 84.925781 29.214844 C 84.132812 28.550781 82.945312 28.636719 82.269531 29.421875 L 72.472656 40.734375 L 36.90625 81.816406 Z M 99.417969 41.417969 "/>
<path style=" stroke:none;fill-rule:nonzero;fill:rgb(43.921569%,72.941178%,43.921569%);fill-opacity:1;" d="M 77.835938 34.539062 L 74.792969 38.058594 L 73.160156 37.464844 L 76.210938 33.945312 Z M 77.835938 34.539062 "/>
<path style=" stroke:none;fill-rule:nonzero;fill:rgb(62.7451%,78.823531%,47.450981%);fill-opacity:1;" d="M 74.792969 38.058594 L 46.90625 70.265625 L 48.535156 65.90625 L 70.035156 41.078125 L 73.160156 37.464844 Z M 74.792969 38.058594 "/>
<path style=" stroke:none;fill-rule:nonzero;fill:rgb(70.19608%,87.843138%,54.901963%);fill-opacity:1;" d="M 95.582031 43.894531 L 87.355469 36.964844 C 87.292969 37.042969 87.234375 37.113281 87.167969 37.191406 C 85.417969 39.214844 82.332031 39.453125 80.28125 37.726562 L 48.726562 74.175781 Z M 95.582031 43.894531 "/>
<path style=" stroke:none;fill-rule:nonzero;fill:rgb(43.921569%,72.941178%,43.921569%);fill-opacity:1;" d="M 52.507812 69.808594 L 48.726562 74.175781 L 36.90625 81.816406 L 40.691406 77.445312 Z M 52.507812 69.808594 "/>
<path style=" stroke:none;fill-rule:nonzero;fill:rgb(43.921569%,72.941178%,43.921569%);fill-opacity:1;" d="M 99.417969 41.417969 L 95.582031 43.894531 L 94.289062 42.804688 L 98.121094 40.324219 Z M 99.417969 41.417969 "/>
<path style=" stroke:none;fill-rule:nonzero;fill:rgb(62.7451%,78.823531%,47.450981%);fill-opacity:1;" d="M 95.582031 43.894531 L 48.726562 74.175781 L 52.507812 69.808594 L 94.289062 42.804688 Z M 95.582031 43.894531 "/>
<path style=" stroke:none;fill-rule:nonzero;fill:rgb(62.7451%,78.823531%,47.450981%);fill-opacity:1;" d="M 40.691406 77.445312 L 36.90625 81.816406 L 36.539062 82.050781 L 37.113281 79.753906 Z M 40.691406 77.445312 "/>
<path style=" stroke:none;fill-rule:nonzero;fill:rgb(43.921569%,72.941178%,43.921569%);fill-opacity:1;" d="M 48.535156 65.90625 L 46.90625 70.265625 L 39.476562 78.851562 L 41.109375 74.496094 Z M 48.535156 65.90625 "/>
<path style=" stroke:none;fill-rule:nonzero;fill:rgb(43.921569%,72.941178%,43.921569%);fill-opacity:1;" d="M 37.113281 79.753906 L 36.960938 81.785156 L 32.777344 84.484375 L 32.9375 82.457031 Z M 37.113281 79.753906 "/>
<path style=" stroke:none;fill-rule:nonzero;fill:rgb(66.666669%,41.176471%,23.529412%);fill-opacity:1;" d="M 37.132812 91.199219 L 34.015625 93.203125 C 33.410156 93.597656 32.597656 93.425781 32.195312 92.824219 C 31.796875 92.21875 31.964844 91.417969 32.570312 91.027344 L 35.679688 89.015625 C 36.289062 88.621094 37.101562 88.792969 37.507812 89.398438 C 37.902344 90 37.738281 90.808594 37.132812 91.199219 Z M 37.132812 91.199219 "/>
<path style=" stroke:none;fill-rule:nonzero;fill:rgb(66.666669%,41.176471%,23.529412%);fill-opacity:1;" d="M 142.839844 98.914062 L 140.136719 100.660156 C 139.535156 101.050781 138.714844 100.878906 138.316406 100.28125 C 137.914062 99.679688 138.085938 98.875 138.691406 98.480469 L 141.390625 96.734375 C 141.996094 96.351562 142.816406 96.515625 143.210938 97.121094 C 143.617188 97.722656 143.449219 98.523438 142.839844 98.914062 Z M 135.8125 103.449219 L 133.113281 105.195312 C 132.507812 105.585938 131.6875 105.414062 131.292969 104.816406 C 130.886719 104.214844 131.054688 103.40625 131.664062 103.015625 L 134.363281 101.269531 C 134.96875 100.886719 135.789062 101.050781 136.1875 101.652344 C 136.589844 102.257812 136.417969 103.058594 135.8125 103.449219 Z M 128.789062 107.984375 L 126.085938 109.730469 C 125.476562 110.121094 124.664062 109.949219 124.261719 109.347656 C 123.863281 108.75 124.027344 107.941406 124.632812 107.550781 L 127.339844 105.8125 C 127.945312 105.417969 128.757812 105.585938 129.160156 106.1875 C 129.558594 106.789062 129.394531 107.59375 128.789062 107.984375 Z M 121.761719 112.519531 L 119.054688 114.265625 C 118.453125 114.65625 117.636719 114.484375 117.234375 113.882812 C 116.835938 113.285156 117.003906 112.476562 117.609375 112.085938 L 120.316406 110.347656 C 120.917969 109.953125 121.734375 110.121094 122.136719 110.726562 C 122.535156 111.324219 122.367188 112.128906 121.761719 112.519531 Z M 114.738281 117.054688 L 112.03125 118.796875 C 111.425781 119.191406 110.605469 119.019531 110.210938 118.417969 C 109.8125 117.820312 109.976562 117.011719 110.582031 116.621094 L 113.285156 114.882812 C 113.894531 114.488281 114.707031 114.65625 115.109375 115.261719 C 115.507812 115.859375 115.34375 116.660156 114.738281 117.054688 Z M 107.707031 121.589844 L 105.007812 123.332031 C 104.402344 123.726562 103.582031 123.558594 103.183594 122.953125 C 102.78125 122.355469 102.953125 121.546875 103.558594 121.15625 L 106.257812 119.410156 C 106.863281 119.023438 107.683594 119.191406 108.078125 119.796875 C 108.484375 120.394531 108.316406 121.195312 107.707031 121.589844 Z M 100.679688 126.121094 L 97.980469 127.867188 C 97.375 128.257812 96.554688 128.09375 96.160156 127.488281 C 95.753906 126.886719 95.921875 126.082031 96.53125 125.691406 L 99.234375 123.949219 C 99.835938 123.558594 100.65625 123.726562 101.054688 124.332031 C 101.457031 124.929688 101.285156 125.738281 100.679688 126.121094 Z M 93.65625 130.65625 L 90.957031 132.402344 C 90.34375 132.792969 89.53125 132.628906 89.132812 132.023438 C 88.730469 131.421875 88.894531 130.617188 89.5 130.222656 L 92.207031 128.484375 C 92.8125 128.09375 93.632812 128.257812 94.027344 128.863281 C 94.425781 129.464844 94.261719 130.265625 93.65625 130.65625 Z M 86.628906 135.191406 L 83.925781 136.9375 C 83.320312 137.328125 82.507812 137.164062 82.101562 136.558594 C 81.703125 135.957031 81.871094 135.152344 82.476562 134.757812 L 85.183594 133.019531 C 85.789062 132.628906 86.605469 132.792969 87.003906 133.398438 C 87.402344 134 87.234375 134.800781 86.628906 135.191406 Z M 79.605469 139.726562 L 76.898438 141.472656 C 76.292969 141.863281 75.480469 141.699219 75.078125 141.09375 C 74.679688 140.492188 74.847656 139.683594 75.449219 139.300781 L 78.15625 137.554688 C 78.761719 137.164062 79.574219 137.328125 79.976562 137.933594 C 80.375 138.535156 80.210938 139.335938 79.605469 139.726562 Z M 146.171875 95.351562 C 145.960938 95.496094 145.703125 95.574219 145.425781 95.566406 C 144.703125 95.550781 144.125 94.949219 144.136719 94.230469 C 144.144531 93.953125 144.058594 93.671875 143.898438 93.4375 L 143.023438 92.117188 C 142.625 91.519531 142.789062 90.710938 143.394531 90.320312 C 144.007812 89.929688 144.820312 90.101562 145.222656 90.699219 L 146.097656 92.019531 C 146.550781 92.699219 146.785156 93.488281 146.765625 94.296875 C 146.761719 94.742188 146.523438 95.128906 146.171875 95.351562 Z M 141.996094 88.214844 C 141.390625 88.605469 140.570312 88.433594 140.175781 87.832031 L 138.386719 85.148438 C 137.992188 84.550781 138.15625 83.742188 138.761719 83.351562 C 139.367188 82.960938 140.1875 83.132812 140.582031 83.730469 L 142.371094 86.414062 C 142.765625 87.015625 142.601562 87.820312 141.996094 88.214844 Z M 137.363281 81.246094 C 136.75 81.636719 135.9375 81.464844 135.539062 80.863281 L 133.753906 78.1875 C 133.355469 77.582031 133.523438 76.78125 134.128906 76.390625 C 134.734375 75.996094 135.550781 76.164062 135.949219 76.769531 L 137.734375 79.445312 C 138.132812 80.046875 137.964844 80.851562 137.363281 81.246094 Z M 132.722656 74.277344 C 132.117188 74.667969 131.304688 74.503906 130.898438 73.898438 L 129.121094 71.21875 C 128.714844 70.621094 128.886719 69.8125 129.492188 69.421875 C 130.097656 69.03125 130.917969 69.203125 131.316406 69.800781 L 133.101562 72.476562 C 133.5 73.082031 133.332031 73.882812 132.722656 74.277344 Z M 128.085938 67.3125 C 127.480469 67.707031 126.667969 67.535156 126.265625 66.933594 L 124.484375 64.25 C 124.082031 63.652344 124.253906 62.84375 124.859375 62.453125 C 125.464844 62.0625 126.277344 62.234375 126.679688 62.832031 L 128.460938 65.515625 C 128.863281 66.113281 128.699219 66.921875 128.085938 67.3125 Z M 123.453125 60.347656 C 122.847656 60.738281 122.027344 60.566406 121.632812 59.964844 L 119.851562 57.285156 C 119.449219 56.683594 119.613281 55.882812 120.21875 55.492188 C 120.832031 55.097656 121.644531 55.265625 122.046875 55.871094 L 123.828125 58.546875 C 124.226562 59.148438 124.058594 59.953125 123.453125 60.347656 Z M 118.820312 53.378906 C 118.214844 53.769531 117.394531 53.597656 116.996094 52.996094 L 115.210938 50.320312 C 114.8125 49.714844 114.980469 48.914062 115.585938 48.523438 C 116.195312 48.128906 117.007812 48.304688 117.40625 48.902344 L 119.191406 51.578125 C 119.589844 52.183594 119.425781 52.984375 118.820312 53.378906 Z M 114.183594 46.410156 C 113.578125 46.800781 112.761719 46.636719 112.363281 46.03125 L 111.492188 44.71875 C 111.332031 44.480469 111.101562 44.296875 110.839844 44.191406 C 110.164062 43.917969 109.835938 43.15625 110.109375 42.492188 C 110.382812 41.828125 111.148438 41.511719 111.824219 41.785156 C 112.582031 42.09375 113.230469 42.617188 113.6875 43.304688 L 114.558594 44.617188 C 114.957031 45.214844 114.789062 46.023438 114.183594 46.410156 Z M 107.402344 45.671875 L 104.703125 47.414062 C 104.097656 47.804688 103.277344 47.636719 102.882812 47.03125 C 102.476562 46.433594 102.648438 45.632812 103.253906 45.238281 L 105.957031 43.496094 C 106.558594 43.101562 107.378906 43.269531 107.777344 43.875 C 108.179688 44.472656 108.015625 45.28125 107.402344 45.671875 Z M 100.378906 50.207031 L 97.679688 51.945312 C 97.074219 52.339844 96.253906 52.171875 95.855469 51.566406 C 95.453125 50.96875 95.617188 50.167969 96.230469 49.773438 L 98.929688 48.03125 C 99.535156 47.636719 100.355469 47.804688 100.75 48.410156 C 101.15625 49.007812 100.984375 49.816406 100.378906 50.207031 Z M 93.351562 54.742188 L 90.652344 56.480469 C 90.042969 56.875 89.230469 56.707031 88.832031 56.101562 C 88.425781 55.503906 88.59375 54.703125 89.199219 54.308594 L 91.90625 52.566406 C 92.511719 52.171875 93.328125 52.339844 93.726562 52.945312 C 94.125 53.542969 93.957031 54.351562 93.351562 54.742188 Z M 86.328125 59.277344 L 83.621094 61.015625 C 83.015625 61.410156 82.203125 61.242188 81.800781 60.636719 C 81.402344 60.039062 81.570312 59.234375 82.171875 58.84375 L 84.878906 57.097656 C 85.484375 56.707031 86.296875 56.878906 86.699219 57.480469 C 87.097656 58.078125 86.933594 58.886719 86.328125 59.277344 Z M 79.300781 63.8125 L 76.597656 65.550781 C 75.992188 65.941406 75.179688 65.777344 74.773438 65.171875 C 74.378906 64.570312 74.542969 63.769531 75.148438 63.378906 L 77.855469 61.632812 C 78.460938 61.242188 79.273438 61.414062 79.675781 62.015625 C 80.074219 62.613281 79.90625 63.421875 79.300781 63.8125 Z M 72.277344 68.347656 L 69.570312 70.09375 C 68.964844 70.476562 68.148438 70.3125 67.75 69.707031 C 67.351562 69.105469 67.519531 68.304688 68.121094 67.914062 L 70.824219 66.167969 C 71.433594 65.777344 72.246094 65.949219 72.648438 66.546875 C 73.046875 67.148438 72.882812 67.957031 72.277344 68.347656 Z M 65.246094 72.882812 L 62.546875 74.625 C 61.941406 75.011719 61.121094 74.847656 60.722656 74.246094 C 60.320312 73.640625 60.492188 72.839844 61.097656 72.449219 L 63.796875 70.703125 C 64.402344 70.3125 65.222656 70.484375 65.617188 71.082031 C 66.023438 71.683594 65.855469 72.488281 65.246094 72.882812 Z M 58.21875 77.417969 L 55.519531 79.160156 C 54.914062 79.546875 54.097656 79.382812 53.699219 78.78125 C 53.296875 78.175781 53.460938 77.375 54.074219 76.984375 L 56.773438 75.238281 C 57.378906 74.847656 58.195312 75.019531 58.59375 75.617188 C 58.996094 76.21875 58.824219 77.023438 58.21875 77.417969 Z M 51.195312 81.949219 L 48.496094 83.695312 C 47.882812 84.082031 47.070312 83.914062 46.671875 83.316406 C 46.269531 82.710938 46.4375 81.910156 47.042969 81.519531 L 49.746094 79.773438 C 50.351562 79.382812 51.171875 79.554688 51.570312 80.152344 C 51.964844 80.753906 51.800781 81.558594 51.195312 81.949219 Z M 44.167969 86.484375 L 41.464844 88.230469 C 40.859375 88.621094 40.046875 88.449219 39.640625 87.851562 C 39.246094 87.246094 39.410156 86.445312 40.015625 86.050781 L 42.722656 84.308594 C 43.328125 83.914062 44.140625 84.085938 44.542969 84.6875 C 44.941406 85.285156 44.773438 86.09375 44.167969 86.484375 Z M 44.167969 86.484375 "/>
<path style=" stroke:none;fill-rule:nonzero;fill:rgb(76.862746%,46.666667%,26.274511%);fill-opacity:1;" d="M 130.515625 77.351562 L 138.101562 72.441406 C 139.484375 71.550781 139.871094 69.722656 138.964844 68.363281 L 132.378906 58.445312 C 131.46875 57.085938 129.617188 56.707031 128.242188 57.597656 L 120.652344 62.507812 C 116.492188 65.1875 115.335938 70.691406 118.058594 74.792969 C 120.785156 78.886719 126.359375 80.035156 130.515625 77.351562 Z M 130.515625 77.351562 "/>
</g>
</svg>
