<svg width="18" height="18" viewBox="0 0 18 18" fill="none" xmlns="http://www.w3.org/2000/svg">
<path fill-rule="evenodd" clip-rule="evenodd" d="M8.41085 0.910826C8.73629 0.585389 9.26392 0.585389 9.58936 0.910826L17.0894 8.41083C17.3277 8.64916 17.399 9.00759 17.27 9.31898C17.141 9.63038 16.8372 9.83341 16.5001 9.83341H15.6668V14.8334C15.6668 15.4965 15.4034 16.1323 14.9345 16.6012C14.4657 17.07 13.8298 17.3334 13.1668 17.3334H4.83344C4.1704 17.3334 3.53451 17.07 3.06567 16.6012C2.59683 16.1323 2.33344 15.4965 2.33344 14.8334V9.83341H1.50011C1.16305 9.83341 0.85919 9.63038 0.730206 9.31898C0.601222 9.00759 0.672518 8.64916 0.91085 8.41083L8.41085 0.910826ZM3.4592 8.2195C3.77519 8.33793 4.00011 8.64274 4.00011 9.00008V14.8334C4.00011 15.0544 4.0879 15.2664 4.24418 15.4227C4.40046 15.579 4.61243 15.6667 4.83344 15.6667H5.66677V11.5001C5.66677 10.837 5.93017 10.2012 6.39901 9.73232C6.86785 9.26347 7.50373 9.00008 8.16677 9.00008H9.83344C10.4965 9.00008 11.1324 9.26347 11.6012 9.73232C12.07 10.2012 12.3334 10.837 12.3334 11.5001V15.6667H13.1668C13.3878 15.6667 13.5997 15.579 13.756 15.4227C13.9123 15.2664 14.0001 15.0544 14.0001 14.8334V9.00008C14.0001 8.64274 14.225 8.33793 14.541 8.2195L9.00011 2.67859L3.4592 8.2195ZM10.6668 15.6667V11.5001C10.6668 11.2791 10.579 11.0671 10.4227 10.9108C10.2664 10.7545 10.0545 10.6667 9.83344 10.6667H8.16677C7.94576 10.6667 7.7338 10.7545 7.57752 10.9108C7.42124 11.0671 7.33344 11.2791 7.33344 11.5001V15.6667H10.6668Z" fill="#71717A"/>
</svg>
