<svg width="33" height="32" viewBox="0 0 33 32" fill="none" xmlns="http://www.w3.org/2000/svg">
<circle cx="24.6477" cy="7.55184" r="1.42" fill="#5DA7E5" stroke="#5DA7E5"/>
<mask id="path-2-inside-1_11507_4211" fill="white">
<path d="M24.5198 15.9999C24.5198 20.5949 20.7948 24.3199 16.1998 24.3199C11.6048 24.3199 7.87977 20.5949 7.87977 15.9999C7.87977 11.4049 11.6048 7.67993 16.1998 7.67993C20.7948 7.67993 24.5198 11.4049 24.5198 15.9999ZM10.7742 15.9999C10.7742 18.9964 13.2033 21.4255 16.1998 21.4255C19.1962 21.4255 21.6253 18.9964 21.6253 15.9999C21.6253 13.0035 19.1962 10.5744 16.1998 10.5744C13.2033 10.5744 10.7742 13.0035 10.7742 15.9999Z"/>
</mask>
<path d="M24.5198 15.9999C24.5198 20.5949 20.7948 24.3199 16.1998 24.3199C11.6048 24.3199 7.87977 20.5949 7.87977 15.9999C7.87977 11.4049 11.6048 7.67993 16.1998 7.67993C20.7948 7.67993 24.5198 11.4049 24.5198 15.9999ZM10.7742 15.9999C10.7742 18.9964 13.2033 21.4255 16.1998 21.4255C19.1962 21.4255 21.6253 18.9964 21.6253 15.9999C21.6253 13.0035 19.1962 10.5744 16.1998 10.5744C13.2033 10.5744 10.7742 13.0035 10.7742 15.9999Z" fill="#5DA7E5" stroke="#5DA7E5" stroke-width="2" mask="url(#path-2-inside-1_11507_4211)"/>
<rect x="1.34977" y="1.15" width="29.7" height="29.7" rx="6.25" stroke="#5DA7E5" stroke-width="2.3"/>
</svg>
