<svg width="22" height="22" viewBox="0 0 22 22" fill="none" xmlns="http://www.w3.org/2000/svg">
  <path fill-rule="evenodd" clip-rule="evenodd" d="M0.87868 0.87868C1.44129 0.31607 2.20435 0 3 0H10.172C10.9675 0.000169933 11.7306 0.316312 12.2931 0.878893C12.2931 0.878858 12.2931 0.878929 12.2931 0.878893L20.9993 9.58513C21.6372 10.227 21.9951 11.0951 21.9951 12C21.9951 12.9049 21.6372 13.773 20.9993 14.4149L20.9971 14.4171L14.4171 20.9971L14.4149 20.9993C13.773 21.6372 12.9049 21.9951 12 21.9951C11.0951 21.9951 10.227 21.6372 9.58514 20.9993L9.58289 20.9971L0.879 12.2932C0.878964 12.2932 0.879036 12.2932 0.879 12.2932C0.316418 11.7307 0.000169933 10.9677 0 10.1722V3C0 2.20435 0.31607 1.44129 0.87868 0.87868ZM3 2C2.73478 2 2.48043 2.10536 2.29289 2.29289C2.10536 2.48043 2 2.73478 2 3V10.1718C2 10.1717 2 10.1719 2 10.1718C2.00011 10.4369 2.1055 10.6913 2.293 10.8788L10.9949 19.5807C10.9952 19.581 10.9956 19.5813 10.9959 19.5817C11.263 19.8465 11.6239 19.9951 12 19.9951C12.3761 19.9951 12.737 19.8465 13.0041 19.5817C13.0044 19.5813 13.0048 19.581 13.0051 19.5807L19.5807 13.0051C19.581 13.0048 19.5813 13.0044 19.5817 13.0041C19.8465 12.737 19.9951 12.3761 19.9951 12C19.9951 11.6239 19.8465 11.263 19.5817 10.9959C19.5813 10.9956 19.581 10.9952 19.5807 10.9949L10.8789 2.29311C10.6915 2.10561 10.4371 2.00011 10.172 2C10.1719 2 10.1721 2 10.172 2H3Z" fill="currentColor" />
  <path d="M6.5 7C6.77614 7 7 6.77614 7 6.5C7 6.22386 6.77614 6 6.5 6C6.22386 6 6 6.22386 6 6.5C6 6.77614 6.22386 7 6.5 7Z" fill="#71717A" />
  <path fill-rule="evenodd" clip-rule="evenodd" d="M6.5 7C6.77614 7 7 6.77614 7 6.5C7 6.22386 6.77614 6 6.5 6C6.22386 6 6 6.22386 6 6.5C6 6.77614 6.22386 7 6.5 7ZM5 6.5C5 5.67157 5.67157 5 6.5 5C7.32843 5 8 5.67157 8 6.5C8 7.32843 7.32843 8 6.5 8C5.67157 8 5 7.32843 5 6.5Z" fill="#71717A" />
</svg>