<svg width="16" height="16" viewBox="0 0 16 16" fill="none" xmlns="http://www.w3.org/2000/svg">
<path fill-rule="evenodd" clip-rule="evenodd" d="M1.5 7.99996C1.5 6.98744 2.32081 6.16663 3.33333 6.16663C4.34586 6.16663 5.16667 6.98744 5.16667 7.99996C5.16667 9.01248 4.34586 9.83329 3.33333 9.83329C2.32081 9.83329 1.5 9.01248 1.5 7.99996ZM3.33333 7.16663C2.8731 7.16663 2.5 7.53972 2.5 7.99996C2.5 8.4602 2.8731 8.83329 3.33333 8.83329C3.79357 8.83329 4.16667 8.4602 4.16667 7.99996C4.16667 7.53972 3.79357 7.16663 3.33333 7.16663Z" fill="#3F3F46"/>
<path fill-rule="evenodd" clip-rule="evenodd" d="M6.16667 7.99996C6.16667 6.98744 6.98748 6.16663 8 6.16663C9.01252 6.16663 9.83333 6.98744 9.83333 7.99996C9.83333 9.01248 9.01252 9.83329 8 9.83329C6.98748 9.83329 6.16667 9.01248 6.16667 7.99996ZM8 7.16663C7.53976 7.16663 7.16667 7.53972 7.16667 7.99996C7.16667 8.4602 7.53976 8.83329 8 8.83329C8.46024 8.83329 8.83333 8.4602 8.83333 7.99996C8.83333 7.53972 8.46024 7.16663 8 7.16663Z" fill="#3F3F46"/>
<path fill-rule="evenodd" clip-rule="evenodd" d="M12.6667 6.16663C11.6541 6.16663 10.8333 6.98744 10.8333 7.99996C10.8333 9.01248 11.6541 9.83329 12.6667 9.83329C13.6792 9.83329 14.5 9.01248 14.5 7.99996C14.5 6.98744 13.6792 6.16663 12.6667 6.16663ZM11.8333 7.99996C11.8333 7.53972 12.2064 7.16663 12.6667 7.16663C13.1269 7.16663 13.5 7.53972 13.5 7.99996C13.5 8.4602 13.1269 8.83329 12.6667 8.83329C12.2064 8.83329 11.8333 8.4602 11.8333 7.99996Z" fill="#3F3F46"/>
</svg>
