<svg width="16" height="16" viewBox="0 0 16 16" fill="none" xmlns="http://www.w3.org/2000/svg">
<path fill-rule="evenodd" clip-rule="evenodd" d="M2 4.00001C2 3.63182 2.29848 3.33334 2.66667 3.33334H13.3333C13.7015 3.33334 14 3.63182 14 4.00001C14 4.3682 13.7015 4.66668 13.3333 4.66668H2.66667C2.29848 4.66668 2 4.3682 2 4.00001ZM2 8.00001C2 7.63182 2.29848 7.33334 2.66667 7.33334H13.3333C13.7015 7.33334 14 7.63182 14 8.00001C14 8.3682 13.7015 8.66668 13.3333 8.66668H2.66667C2.29848 8.66668 2 8.3682 2 8.00001ZM2 12C2 11.6318 2.29848 11.3333 2.66667 11.3333H13.3333C13.7015 11.3333 14 11.6318 14 12C14 12.3682 13.7015 12.6667 13.3333 12.6667H2.66667C2.29848 12.6667 2 12.3682 2 12Z" fill="#11181C"/>
</svg>
