<svg width="20" height="20" viewBox="0 0 20 20" fill="none" xmlns="http://www.w3.org/2000/svg">
  <path fill-rule="evenodd" clip-rule="evenodd" d="M0 2C0 0.89543 0.89543 0 2 0H7C8.10457 0 9 0.89543 9 2V7C9 8.10457 8.10457 9 7 9H2C0.89543 9 0 8.10457 0 7V2ZM7 2H2V7H7V2Z" fill="currentColor" />
  <path fill-rule="evenodd" clip-rule="evenodd" d="M0 13C0 11.8954 0.89543 11 2 11H7C8.10457 11 9 11.8954 9 13V18C9 19.1046 8.10457 20 7 20H2C0.89543 20 0 19.1046 0 18V13ZM7 13H2V18H7V13Z" fill="currentColor" />
  <path fill-rule="evenodd" clip-rule="evenodd" d="M11 2C11 1.44772 11.4477 1 12 1H19C19.5523 1 20 1.44772 20 2C20 2.55228 19.5523 3 19 3H12C11.4477 3 11 2.55228 11 2Z" fill="currentColor" />
  <path fill-rule="evenodd" clip-rule="evenodd" d="M11 7C11 6.44772 11.4477 6 12 6H19C19.5523 6 20 6.44772 20 7C20 7.55228 19.5523 8 19 8H12C11.4477 8 11 7.55228 11 7Z" fill="currentColor" />
  <path fill-rule="evenodd" clip-rule="evenodd" d="M11 13C11 12.4477 11.4477 12 12 12H19C19.5523 12 20 12.4477 20 13C20 13.5523 19.5523 14 19 14H12C11.4477 14 11 13.5523 11 13Z" fill="currentColor" />
  <path fill-rule="evenodd" clip-rule="evenodd" d="M11 18C11 17.4477 11.4477 17 12 17H19C19.5523 17 20 17.4477 20 18C20 18.5523 19.5523 19 19 19H12C11.4477 19 11 18.5523 11 18Z" fill="currentColor" />
</svg>