<svg width="32" height="32" viewBox="0 0 32 32" fill="none" xmlns="http://www.w3.org/2000/svg">
<circle cx="16" cy="16" r="16" fill="#F01FAA" fill-opacity="0.2"/>
<g clip-path="url(#clip0_11091_3822)">
<path fill-rule="evenodd" clip-rule="evenodd" d="M16.0003 9.99999C12.6866 9.99999 10.0003 12.6863 10.0003 16C10.0003 19.3137 12.6866 22 16.0003 22C19.314 22 22.0003 19.3137 22.0003 16C22.0003 12.6863 19.314 9.99999 16.0003 9.99999ZM8.66699 16C8.66699 11.9499 11.9502 8.66666 16.0003 8.66666C20.0504 8.66666 23.3337 11.9499 23.3337 16C23.3337 20.0501 20.0504 23.3333 16.0003 23.3333C11.9502 23.3333 8.66699 20.0501 8.66699 16Z" fill="#F01FAA"/>
<path fill-rule="evenodd" clip-rule="evenodd" d="M13.2528 13.2524C13.6279 12.8774 14.1366 12.6667 14.667 12.6667H18.667C19.0352 12.6667 19.3337 12.9651 19.3337 13.3333C19.3337 13.7015 19.0352 14 18.667 14H14.667C14.4902 14 14.3206 14.0702 14.1956 14.1953C14.0706 14.3203 14.0003 14.4898 14.0003 14.6667C14.0003 14.8435 14.0706 15.013 14.1956 15.1381C14.3206 15.2631 14.4902 15.3333 14.667 15.3333H17.3337C17.8641 15.3333 18.3728 15.544 18.7479 15.9191C19.1229 16.2942 19.3337 16.8029 19.3337 17.3333C19.3337 17.8638 19.1229 18.3725 18.7479 18.7475C18.3728 19.1226 17.8641 19.3333 17.3337 19.3333H13.3337C12.9655 19.3333 12.667 19.0348 12.667 18.6667C12.667 18.2985 12.9655 18 13.3337 18H17.3337C17.5105 18 17.68 17.9298 17.8051 17.8047C17.9301 17.6797 18.0003 17.5101 18.0003 17.3333C18.0003 17.1565 17.9301 16.9869 17.8051 16.8619C17.68 16.7369 17.5105 16.6667 17.3337 16.6667H14.667C14.1366 16.6667 13.6279 16.4559 13.2528 16.0809C12.8777 15.7058 12.667 15.1971 12.667 14.6667C12.667 14.1362 12.8777 13.6275 13.2528 13.2524Z" fill="#F01FAA"/>
<path fill-rule="evenodd" clip-rule="evenodd" d="M16.0003 11.3333C16.3685 11.3333 16.667 11.6318 16.667 12V20C16.667 20.3682 16.3685 20.6667 16.0003 20.6667C15.6321 20.6667 15.3337 20.3682 15.3337 20V12C15.3337 11.6318 15.6321 11.3333 16.0003 11.3333Z" fill="#F01FAA"/>
</g>
<defs>
<clipPath id="clip0_11091_3822">
<rect width="16" height="16" fill="white" transform="translate(8 8)"/>
</clipPath>
</defs>
</svg>
