<svg width="32" height="32" viewBox="0 0 32 32" fill="none" xmlns="http://www.w3.org/2000/svg">
<circle cx="16" cy="16" r="16" fill="#B5B209" fill-opacity="0.2"/>
<path fill-rule="evenodd" clip-rule="evenodd" d="M15.9987 10.6667C14.5846 10.667 13.2286 11.2289 12.2287 12.2288C11.2285 13.229 10.6666 14.5855 10.6666 16C10.6666 16.3682 10.3681 16.6667 9.99992 16.6667C9.63173 16.6667 9.33325 16.3682 9.33325 16C9.33325 14.2319 10.0356 12.5362 11.2859 11.2859C12.5361 10.0357 14.2318 9.33333 15.9999 9.33333H16.0024C17.8518 9.34029 19.6269 10.0619 20.9566 11.3474L20.9647 11.3553L21.3333 11.7239V9.99999C21.3333 9.63181 21.6317 9.33333 21.9999 9.33333C22.3681 9.33333 22.6666 9.63181 22.6666 9.99999V13.3333C22.6666 13.7015 22.3681 14 21.9999 14H18.6666C18.2984 14 17.9999 13.7015 17.9999 13.3333C17.9999 12.9651 18.2984 12.6667 18.6666 12.6667H20.3904L20.0259 12.3022C18.9444 11.2586 17.5017 10.6726 15.9987 10.6667ZM19.7712 19.7712C20.7713 18.771 21.3333 17.4145 21.3333 16C21.3333 15.6318 21.6317 15.3333 21.9999 15.3333C22.3681 15.3333 22.6666 15.6318 22.6666 16C22.6666 17.7681 21.9642 19.4638 20.714 20.714C19.4637 21.9643 17.768 22.6667 15.9999 22.6667L15.9974 22.6667C14.148 22.6597 12.3729 21.9381 11.0432 20.6526L11.0352 20.6447L10.6666 20.2761V22C10.6666 22.3682 10.3681 22.6667 9.99992 22.6667C9.63173 22.6667 9.33325 22.3682 9.33325 22V18.6667C9.33325 18.2985 9.63173 18 9.99992 18H13.3333C13.7014 18 13.9999 18.2985 13.9999 18.6667C13.9999 19.0349 13.7014 19.3333 13.3333 19.3333H11.6094L11.9739 19.6978C13.0554 20.7414 14.4981 21.3273 16.0011 21.3333C17.4152 21.333 18.7712 20.7712 19.7712 19.7712Z" fill="#B5B209"/>
</svg>
