<svg width="22" height="22" viewBox="0 0 20 20" fill="none" xmlns="http://www.w3.org/2000/svg">
<path fill-rule="evenodd" clip-rule="evenodd" d="M3.81391 0.985847C4.18991 1.25126 4.27956 1.77122 4.01415 2.14722C3.09276 3.45253 2.50001 4.9547 2.50001 6.66665C2.50001 7.12689 2.12691 7.49999 1.66668 7.49999C1.20644 7.49999 0.833344 7.12689 0.833344 6.66665C0.833344 4.54527 1.57393 2.71412 2.65254 1.18608C2.91795 0.810086 3.43791 0.720436 3.81391 0.985847ZM16.1861 0.985847C16.5621 0.720436 17.0821 0.810086 17.3475 1.18608C18.4261 2.71412 19.1667 4.54527 19.1667 6.66665C19.1667 7.12689 18.7936 7.49999 18.3333 7.49999C17.8731 7.49999 17.5 7.12689 17.5 6.66665C17.5 4.9547 16.9073 3.45253 15.9859 2.14722C15.7205 1.77122 15.8101 1.25126 16.1861 0.985847ZM10 2.49999C8.89494 2.49999 7.83513 2.93897 7.05373 3.72038C6.27233 4.50178 5.83334 5.56159 5.83334 6.66665C5.83334 9.7061 5.1809 11.7211 4.48159 13.0032C4.41817 13.1195 4.35452 13.2294 4.29111 13.3333H15.7089C15.6455 13.2294 15.5818 13.1195 15.5184 13.0032C14.8191 11.7211 14.1667 9.7061 14.1667 6.66665C14.1667 5.56158 13.7277 4.50178 12.9463 3.72038C12.1649 2.93897 11.1051 2.49999 10 2.49999ZM17.9719 13.4798C17.9713 13.4794 17.9706 13.4788 17.9696 13.4781C17.9631 13.4733 17.9483 13.4619 17.9261 13.4435C17.8817 13.4065 17.8081 13.3409 17.7143 13.242C17.5273 13.0446 17.2581 12.712 16.9816 12.2051C16.4309 11.1955 15.8333 9.46054 15.8333 6.66665C15.8333 5.11956 15.2188 3.63583 14.1248 2.54186C13.0308 1.4479 11.5471 0.833321 10 0.833321C8.45291 0.833321 6.96918 1.4479 5.87522 2.54186C4.78126 3.63583 4.16668 5.11956 4.16668 6.66665C4.16668 9.46054 3.56912 11.1955 3.01843 12.2051C2.74193 12.712 2.4727 13.0446 2.28567 13.242C2.19194 13.3409 2.11829 13.4065 2.07394 13.4435C2.05176 13.4619 2.03688 13.4733 2.03047 13.4781C2.02946 13.4788 2.02867 13.4794 2.02808 13.4798C1.72935 13.685 1.59715 14.0604 1.70243 14.4081C1.80885 14.7596 2.13279 15 2.50001 15H17.5C17.8672 15 18.1912 14.7596 18.2976 14.4081C18.4029 14.0604 18.2707 13.685 17.9719 13.4798ZM2.0365 13.4741C2.03657 13.4741 2.03664 13.474 2.03671 13.474C2.0367 13.474 2.0367 13.474 2.03669 13.474L2.0365 13.4741ZM8.18184 16.7697C8.58514 16.548 9.09184 16.6952 9.31357 17.0985C9.38116 17.2214 9.48051 17.3239 9.60126 17.3954C9.72201 17.4668 9.85972 17.5044 10 17.5044C10.1403 17.5044 10.278 17.4668 10.3987 17.3954C10.5195 17.3239 10.6188 17.2214 10.6864 17.0985C10.9082 16.6952 11.4149 16.548 11.8182 16.7697C12.2215 16.9915 12.3686 17.4982 12.1469 17.9015C11.9355 18.286 11.6248 18.6066 11.2471 18.8299C10.8695 19.0533 10.4388 19.1711 10 19.1711C9.56124 19.1711 9.13054 19.0533 8.75289 18.8299C8.37523 18.6066 8.06448 18.286 7.85309 17.9015C7.63136 17.4982 7.77854 16.9915 8.18184 16.7697Z" fill="#11181C"/>
</svg>
