<svg width="32" height="32" viewBox="0 0 32 32" fill="none" xmlns="http://www.w3.org/2000/svg">
<circle cx="16" cy="16" r="16" fill="#1FA4F0" fill-opacity="0.2"/>
<g clip-path="url(#clip0_11370_11)">
<path d="M16 9C14.6155 9 13.2622 9.41054 12.111 10.1797C10.9599 10.9489 10.0627 12.0421 9.53285 13.3212C9.00303 14.6003 8.86441 16.0078 9.13451 17.3656C9.4046 18.7235 10.0713 19.9708 11.0503 20.9497C12.0292 21.9287 13.2765 22.5954 14.6344 22.8655C15.9922 23.1356 17.3997 22.997 18.6788 22.4672C19.9579 21.9373 21.0511 21.0401 21.8203 19.889C22.5895 18.7378 23 17.3845 23 16C23 14.1435 22.2625 12.363 20.9497 11.0503C19.637 9.7375 17.8565 9 16 9ZM16 22C14.8133 22 13.6533 21.6481 12.6666 20.9888C11.6799 20.3295 10.9109 19.3925 10.4567 18.2961C10.0026 17.1997 9.88378 15.9933 10.1153 14.8295C10.3468 13.6656 10.9182 12.5965 11.7574 11.7574C12.5965 10.9182 13.6656 10.3468 14.8295 10.1153C15.9933 9.88378 17.1997 10.0026 18.2961 10.4567C19.3925 10.9108 20.3295 11.6799 20.9888 12.6666C21.6481 13.6533 22 14.8133 22 16C22 17.5913 21.3679 19.1174 20.2426 20.2426C19.1174 21.3679 17.5913 22 16 22Z" fill="#1FA4F0"/>
<path d="M13.75 13.5C13.5028 13.5 13.2611 13.5733 13.0555 13.7107C12.85 13.848 12.6898 14.0432 12.5952 14.2716C12.5005 14.5 12.4758 14.7514 12.524 14.9939C12.5723 15.2363 12.6913 15.4591 12.8661 15.6339C13.0409 15.8087 13.2637 15.9277 13.5061 15.976C13.7486 16.0242 13.9999 15.9995 14.2284 15.9048C14.4568 15.8102 14.652 15.65 14.7893 15.4445C14.9267 15.2389 15 14.9972 15 14.75C15.0013 14.5855 14.9699 14.4223 14.9076 14.2701C14.8452 14.1178 14.7532 13.9795 14.6369 13.8631C14.5205 13.7468 14.3822 13.6548 14.2299 13.5924C14.0777 13.5301 13.9145 13.4987 13.75 13.5Z" fill="#1FA4F0"/>
<path d="M18.25 13.5C18.0028 13.5 17.7611 13.5733 17.5555 13.7107C17.35 13.848 17.1898 14.0432 17.0952 14.2716C17.0005 14.5 16.9758 14.7514 17.024 14.9939C17.0723 15.2363 17.1913 15.4591 17.3661 15.6339C17.5409 15.8087 17.7637 15.9277 18.0061 15.976C18.2486 16.0242 18.4999 15.9995 18.7284 15.9048C18.9568 15.8102 19.152 15.65 19.2893 15.4445C19.4267 15.2389 19.5 14.9972 19.5 14.75C19.5013 14.5855 19.4699 14.4223 19.4076 14.2701C19.3452 14.1178 19.2532 13.9795 19.1369 13.8631C19.0205 13.7468 18.8822 13.6548 18.7299 13.5924C18.5777 13.5301 18.4145 13.4987 18.25 13.5Z" fill="#1FA4F0"/>
</g>
<defs>
<clipPath id="clip0_11370_11">
<rect width="16" height="16" fill="white" transform="translate(8 8)"/>
</clipPath>
</defs>
</svg>
