<svg width="32" height="32" viewBox="0 0 32 32" fill="none" xmlns="http://www.w3.org/2000/svg">
<circle cx="16" cy="16" r="16" fill="#B8F01F" fill-opacity="0.2"/>
<path fill-rule="evenodd" clip-rule="evenodd" d="M15.3992 11.3489L10.674 13.407L10.6761 13.4118L13.9516 21.33L18.6769 19.2716L18.6746 19.2662L15.3992 11.3489ZM15.4059 10.0069C15.5803 10.0059 15.7532 10.0398 15.9143 10.1067C16.0754 10.1735 16.2215 10.272 16.344 10.3962C16.4652 10.5192 16.5609 10.665 16.6254 10.8251L19.9058 18.7543C20.0409 19.0753 20.0451 19.4365 19.9174 19.7606C19.7892 20.0857 19.5385 20.3476 19.2191 20.4897L19.2143 20.4919L14.4563 22.5645L14.4533 22.5658C14.2929 22.6348 14.1203 22.6709 13.9457 22.672C13.7711 22.6731 13.5981 22.6392 13.4369 22.5724C13.2756 22.5055 13.1294 22.407 13.0068 22.2827C12.8855 22.1596 12.7898 22.0137 12.7252 21.8534L9.44493 13.9238C9.30977 13.6028 9.30558 13.2416 9.43334 12.9174C9.56199 12.5911 9.81345 12.3306 10.1316 12.1889L10.1365 12.1868L14.8987 10.1126C15.059 10.0439 15.2315 10.0079 15.4059 10.0069Z" fill="#96C90A"/>
<path fill-rule="evenodd" clip-rule="evenodd" d="M17.3334 10.6667C17.3334 10.2985 17.6318 10 18 10H18.6667C19.0203 10 19.3595 10.1405 19.6095 10.3905C19.8596 10.6406 20 10.9797 20 11.3333V13.6667C20 14.0349 19.7016 14.3333 19.3334 14.3333C18.9652 14.3333 18.6667 14.0349 18.6667 13.6667V11.3333L18 11.3333C17.6318 11.3333 17.3334 11.0349 17.3334 10.6667Z" fill="#96C90A"/>
<path fill-rule="evenodd" clip-rule="evenodd" d="M20.7196 11.7396C20.8634 11.4007 21.2548 11.2425 21.5937 11.3863C21.765 11.4589 21.9305 11.5268 22.0904 11.59C22.0955 11.592 22.1007 11.5941 22.1058 11.5963C22.4313 11.7344 22.6886 11.9962 22.8211 12.324C22.9536 12.6518 22.9505 13.0188 22.8124 13.3443L22.8117 13.3461L21.2797 16.9288C21.1349 17.2673 20.7431 17.4244 20.4046 17.2796C20.066 17.1349 19.909 16.7431 20.0537 16.4046L21.5849 12.8239C21.4189 12.7581 21.2483 12.6881 21.073 12.6137C20.734 12.4699 20.5758 12.0786 20.7196 11.7396Z" fill="#96C90A"/>
</svg>
