<svg width="88" height="88" viewBox="0 0 88 88" fill="none" xmlns="http://www.w3.org/2000/svg">
<g filter="url(#filter0_i_11830_15550)">
<circle cx="44" cy="44" r="44" fill="url(#paint0_radial_11830_15550)"/>
</g>
<circle cx="44" cy="44" r="43.5" stroke="url(#paint1_linear_11830_15550)" stroke-opacity="0.5"/>
<g filter="url(#filter1_d_11830_15550)">
<path d="M43.8727 50.1764C45.7425 54.3763 44.2101 58.871 39.7225 60.8689C35.2348 62.8669 29.8017 61.0158 26.9686 54.6523C23.783 47.497 25.9718 39.0775 31.8167 34.0247C32.3669 33.5492 32.6419 33.3114 33.0046 33.2561C33.2992 33.2112 33.666 33.2942 33.9137 33.4617C34.2184 33.668 34.3839 34.0397 34.7149 34.783L35.1433 35.7454C35.3854 36.2892 35.5065 36.5612 35.5174 36.8048C35.528 37.0414 35.4919 37.2148 35.3879 37.4269C35.2809 37.6455 35.027 37.8766 34.5195 38.3387C32.4859 40.1901 31.2054 42.5144 30.9326 44.8063C30.832 45.6513 30.7817 46.0738 30.991 46.4423C31.1758 46.7677 31.4797 46.9896 31.845 47.0658C32.2585 47.1522 32.9623 46.826 34.3698 46.1736C34.4225 46.1493 34.4759 46.125 34.5302 46.1008C37.8639 44.6166 41.8894 45.7218 43.8727 50.1764ZM64.6439 40.9287C66.5138 45.1286 64.8531 49.6804 60.3655 51.6784C56.0061 53.6193 50.4448 51.8252 47.6117 45.4617C44.4205 38.294 46.6225 29.8576 52.5864 24.7651C53.1402 24.2922 53.4171 24.0557 53.7788 24.0022C54.0731 23.9586 54.4375 24.0421 54.6844 24.2099C54.9877 24.416 55.153 24.7873 55.4836 25.5297L55.9145 26.4977C56.1567 27.0417 56.2778 27.3137 56.2887 27.5574C56.2992 27.794 56.2631 27.9675 56.1591 28.1796C56.0519 28.3983 55.7982 28.6291 55.2906 29.0909C53.2837 30.9169 52.0079 33.1986 51.6978 35.4282C51.5699 36.3488 51.5059 36.8091 51.7108 37.1833C51.8907 37.5116 52.1974 37.7417 52.562 37.8217C52.9775 37.9129 53.7103 37.5784 55.1761 36.9097C55.2175 36.8908 55.2593 36.872 55.3014 36.8532C58.6351 35.369 62.6607 36.4742 64.6439 40.9287Z" fill="#5DA7E5"/>
<path d="M35.0179 36.8272L35.0179 36.8271C35.0158 36.7803 35.0025 36.7074 34.9484 36.562C34.8933 36.4137 34.8102 36.2265 34.6865 35.9487L34.2581 34.9864C34.0885 34.6055 33.9758 34.3537 33.8702 34.1689C33.7696 33.9926 33.6983 33.9197 33.6335 33.8758L35.0179 36.8272ZM35.0179 36.8272C35.0247 36.9802 35.0059 37.0702 34.939 37.2069L34.9389 37.2069M35.0179 36.8272L34.9389 37.2069M34.9389 37.2069C34.9214 37.2427 34.8768 37.3091 34.7471 37.4412M34.9389 37.2069L34.7471 37.4412M30.5562 46.6892L30.5562 46.6892C30.3958 46.4068 30.3468 46.1164 30.3456 45.8049C30.3445 45.5167 30.3853 45.1739 30.4327 44.7757L30.4361 44.7472C30.7256 42.3154 32.0769 39.8863 34.1829 37.969M30.5562 46.6892L34.1829 37.969M30.5562 46.6892C30.8117 47.139 31.2364 47.4495 31.7428 47.5553L30.5562 46.6892ZM34.1829 37.969C34.441 37.7339 34.619 37.5717 34.7471 37.4412M34.1829 37.969L34.7471 37.4412M53.8521 24.4968L53.852 24.4968C53.7689 24.5091 53.68 24.5418 53.5358 24.6398C53.38 24.7458 53.1961 24.9019 52.9111 25.1453C47.1034 30.1044 44.9737 38.3071 48.0684 45.2583C50.8072 51.4099 56.0935 53.033 60.1621 51.2216C64.4006 49.3346 65.9433 45.0765 64.1871 41.1321C63.2421 39.0095 61.8309 37.7241 60.2984 37.1301C58.762 36.5347 57.0607 36.6173 55.5048 37.31C55.4643 37.328 55.4239 37.3462 55.3836 37.3645L55.3832 37.3647M53.8521 24.4968L55.1755 36.9099L55.1761 36.9097L55.3832 37.3647M53.8521 24.4968C54.0219 24.4716 54.2599 24.5259 54.4034 24.6235C54.4678 24.6673 54.5389 24.7401 54.6395 24.9164C54.7448 25.1011 54.8574 25.3527 55.0268 25.7331L55.4578 26.7011C55.5815 26.9789 55.6646 27.1662 55.7197 27.3145C55.7738 27.46 55.7871 27.5329 55.7892 27.5797C55.796 27.7327 55.7772 27.8228 55.7102 27.9595L55.7101 27.9596C55.6926 27.9954 55.648 28.0617 55.5184 28.1936C55.3903 28.324 55.2123 28.4862 54.9542 28.721L55.2906 29.0909L54.9541 28.721C52.8764 30.6114 51.5315 32.9945 51.2026 35.3594L51.2026 35.3594L51.1987 35.3871C51.138 35.8237 51.0867 36.1932 51.0796 36.4992C51.0722 36.8244 51.112 37.1308 51.2723 37.4235C51.5213 37.878 51.9486 38.199 52.4548 38.31L53.8521 24.4968ZM55.3832 37.3647L55.363 37.374C54.6474 37.7005 54.0848 37.9572 53.6497 38.1192C53.2357 38.2734 52.8213 38.3905 52.4549 38.3101L55.3832 37.3647ZM43.7133 56.1732C44.3736 54.4086 44.3025 52.3711 43.4159 50.3797C42.4709 48.2572 41.0597 46.9717 39.5272 46.3778C37.9908 45.7824 36.2894 45.8649 34.7336 46.5576C34.6816 46.5807 34.6304 46.604 34.5798 46.6274C34.5797 46.6274 34.5797 46.6275 34.5796 46.6275L34.5598 46.6366C33.8732 46.9549 33.332 47.2058 32.9112 47.3646C32.5089 47.5164 32.1056 47.6311 31.7428 47.5553L43.7133 56.1732ZM43.7133 56.1732C43.0539 57.9356 41.6509 59.4631 39.5191 60.4122M43.7133 56.1732L39.5191 60.4122M39.5191 60.4122C37.4004 61.3554 35.0679 61.3884 32.9278 60.4391M39.5191 60.4122L32.9278 60.4391M32.9278 60.4391C30.7865 59.4892 28.8007 57.538 27.4254 54.4489M32.9278 60.4391L27.4254 54.4489M27.4254 54.4489C24.3354 47.5085 26.4539 39.3216 32.1437 34.403M27.4254 54.4489L32.1437 34.403M32.1437 34.403C32.4269 34.1582 32.6094 34.0013 32.7643 33.8948M32.1437 34.403L32.7643 33.8948M32.7643 33.8948C32.9074 33.7964 32.9962 33.7632 33.0799 33.7504L32.7643 33.8948ZM33.08 33.7504C33.2498 33.7245 33.4897 33.7785 33.6334 33.8758L33.08 33.7504Z" stroke="url(#paint2_linear_11830_15550)" stroke-opacity="0.5"/>
</g>
<defs>
<filter id="filter0_i_11830_15550" x="0" y="0" width="89" height="90" filterUnits="userSpaceOnUse" color-interpolation-filters="sRGB">
<feFlood flood-opacity="0" result="BackgroundImageFix"/>
<feBlend mode="normal" in="SourceGraphic" in2="BackgroundImageFix" result="shape"/>
<feColorMatrix in="SourceAlpha" type="matrix" values="0 0 0 0 0 0 0 0 0 0 0 0 0 0 0 0 0 0 127 0" result="hardAlpha"/>
<feOffset dx="1" dy="2"/>
<feGaussianBlur stdDeviation="4"/>
<feComposite in2="hardAlpha" operator="arithmetic" k2="-1" k3="1"/>
<feColorMatrix type="matrix" values="0 0 0 0 0.945098 0 0 0 0 0.407843 0 0 0 0 0.133333 0 0 0 0.08 0"/>
<feBlend mode="normal" in2="shape" result="effect1_innerShadow_11830_15550"/>
</filter>
<filter id="filter1_d_11830_15550" x="16.5042" y="18.9907" width="55.8961" height="53.6448" filterUnits="userSpaceOnUse" color-interpolation-filters="sRGB">
<feFlood flood-opacity="0" result="BackgroundImageFix"/>
<feColorMatrix in="SourceAlpha" type="matrix" values="0 0 0 0 0 0 0 0 0 0 0 0 0 0 0 0 0 0 127 0" result="hardAlpha"/>
<feOffset dx="-1" dy="3"/>
<feGaussianBlur stdDeviation="4"/>
<feComposite in2="hardAlpha" operator="out"/>
<feColorMatrix type="matrix" values="0 0 0 0 0.364706 0 0 0 0 0.654902 0 0 0 0 0.898039 0 0 0 0.24 0"/>
<feBlend mode="normal" in2="BackgroundImageFix" result="effect1_dropShadow_11830_15550"/>
<feBlend mode="normal" in="SourceGraphic" in2="effect1_dropShadow_11830_15550" result="shape"/>
</filter>
<radialGradient id="paint0_radial_11830_15550" cx="0" cy="0" r="1" gradientUnits="userSpaceOnUse" gradientTransform="translate(54.5 61) rotate(-116.768) scale(63.2811)">
<stop stop-color="white"/>
<stop offset="1" stop-color="#E7F4FF"/>
</radialGradient>
<linearGradient id="paint1_linear_11830_15550" x1="19" y1="9.5" x2="71.5" y2="78" gradientUnits="userSpaceOnUse">
<stop stop-color="#5DA7E5"/>
<stop offset="1" stop-color="#5DA7E5" stop-opacity="0.24"/>
</linearGradient>
<linearGradient id="paint2_linear_11830_15550" x1="29.1192" y1="38.2488" x2="53.2133" y2="56.9296" gradientUnits="userSpaceOnUse">
<stop stop-color="#5DA7E5"/>
<stop offset="1" stop-color="#5DA7E5" stop-opacity="0.24"/>
</linearGradient>
</defs>
</svg>
