<svg width="20" height="20" viewBox="0 0 20 20" fill="none" xmlns="http://www.w3.org/2000/svg">
<path fill-rule="evenodd" clip-rule="evenodd" d="M1.56557 2.3989C2.03441 1.93006 2.67029 1.66667 3.33334 1.66667H14.1667C14.8297 1.66667 15.4656 1.93006 15.9344 2.3989C16.4033 2.86775 16.6667 3.50363 16.6667 4.16667V13.3333H17.5C17.942 13.3333 18.3659 13.5089 18.6785 13.8215C18.9911 14.1341 19.1667 14.558 19.1667 15V15.8333C19.1667 16.4964 18.9033 17.1323 18.4344 17.6011C17.9656 18.0699 17.3297 18.3333 16.6667 18.3333H6.66667C6.00363 18.3333 5.36774 18.0699 4.8989 17.6011C4.43006 17.1323 4.16667 16.4964 4.16667 15.8333V7.5H2.5C2.05797 7.5 1.63405 7.32441 1.32149 7.01185C1.00893 6.69929 0.833336 6.27537 0.833336 5.83334V4.16667C0.833336 3.50363 1.09673 2.86775 1.56557 2.3989ZM5.83334 15.8333C5.83334 16.0544 5.92113 16.2663 6.07741 16.4226C6.23369 16.5789 6.44566 16.6667 6.66667 16.6667C6.88768 16.6667 7.09964 16.5789 7.25592 16.4226C7.4122 16.2663 7.5 16.0544 7.5 15.8333V15C7.5 14.558 7.6756 14.1341 7.98816 13.8215C8.30072 13.5089 8.72464 13.3333 9.16667 13.3333H15V4.16667C15 3.94566 14.9122 3.7337 14.7559 3.57742C14.5996 3.42114 14.3877 3.33334 14.1667 3.33334H5.69036C5.78412 3.59851 5.83334 3.88005 5.83334 4.16667V15.8333ZM9.16667 15V15.8333C9.16667 16.12 9.11745 16.4015 9.02369 16.6667H16.6667C16.8877 16.6667 17.0996 16.5789 17.2559 16.4226C17.4122 16.2663 17.5 16.0544 17.5 15.8333V15L9.16667 15ZM4.16667 5.83334H2.5V4.16667C2.5 3.94566 2.5878 3.7337 2.74408 3.57742C2.90036 3.42114 3.11232 3.33334 3.33334 3.33334C3.55435 3.33334 3.76631 3.42114 3.92259 3.57742C4.07887 3.7337 4.16667 3.94566 4.16667 4.16667V5.83334ZM7.5 6.66667C7.5 6.20643 7.8731 5.83334 8.33333 5.83334H12.5C12.9602 5.83334 13.3333 6.20643 13.3333 6.66667C13.3333 7.12691 12.9602 7.5 12.5 7.5H8.33333C7.8731 7.5 7.5 7.12691 7.5 6.66667ZM7.5 10C7.5 9.53977 7.8731 9.16667 8.33333 9.16667H12.5C12.9602 9.16667 13.3333 9.53977 13.3333 10C13.3333 10.4602 12.9602 10.8333 12.5 10.8333H8.33333C7.8731 10.8333 7.5 10.4602 7.5 10Z" fill="#274660"/>
</svg>
