<svg width="18" height="18" viewBox="0 0 18 18" fill="none" xmlns="http://www.w3.org/2000/svg">
<path fill-rule="evenodd" clip-rule="evenodd" d="M8.1665 2.33334C4.94484 2.33334 2.33317 4.94501 2.33317 8.16667C2.33317 11.3883 4.94484 14 8.1665 14C11.3882 14 13.9998 11.3883 13.9998 8.16667C13.9998 4.94501 11.3882 2.33334 8.1665 2.33334ZM0.666504 8.16667C0.666504 4.02454 4.02437 0.666672 8.1665 0.666672C12.3086 0.666672 15.6665 4.02454 15.6665 8.16667C15.6665 9.93751 15.0528 11.565 14.0264 12.8481L17.0891 15.9107C17.4145 16.2362 17.4145 16.7638 17.0891 17.0893C16.7637 17.4147 16.236 17.4147 15.9106 17.0893L12.8479 14.0266C11.5649 15.0529 9.93735 15.6667 8.1665 15.6667C4.02437 15.6667 0.666504 12.3088 0.666504 8.16667Z" fill="#A1A1AA"/>
</svg>
