<svg width="24" height="24" viewBox="0 0 24 24" fill="none" xmlns="http://www.w3.org/2000/svg">
  <path fill-rule="evenodd" clip-rule="evenodd" d="M12 1C12.5523 1 13 1.44772 13 2V3.0557C13.903 3.15663 14.7811 3.3933 15.6057 3.75387L16.1342 2.83956C16.4106 2.3614 17.0223 2.19784 17.5004 2.47423C17.9786 2.75062 18.1422 3.36229 17.8658 3.84044L17.3378 4.75375C17.6994 5.02007 18.0426 5.31465 18.364 5.63604C18.6854 5.95743 18.9799 6.30063 19.2462 6.66216L20.1596 6.13423C20.6377 5.85784 21.2494 6.0214 21.5258 6.49956C21.8022 6.97771 21.6386 7.58938 21.1604 7.86577L20.2461 8.39427C20.6067 9.21888 20.8434 10.097 20.9443 11H22C22.5523 11 23 11.4477 23 12C23 12.5523 22.5523 13 22 13H20.9443C20.8434 13.903 20.6067 14.7811 20.2461 15.6057L21.1604 16.1342C21.6386 16.4106 21.8022 17.0223 21.5258 17.5004C21.2494 17.9786 20.6377 18.1422 20.1596 17.8658L19.2462 17.3378C18.9799 17.6994 18.6854 18.0426 18.364 18.364C18.0426 18.6854 17.6994 18.9799 17.3378 19.2462L17.8658 20.1596C18.1422 20.6377 17.9786 21.2494 17.5004 21.5258C17.0223 21.8022 16.4106 21.6386 16.1342 21.1604L15.6057 20.2461C14.7811 20.6067 13.903 20.8434 13 20.9443V22C13 22.5523 12.5523 23 12 23C11.4477 23 11 22.5523 11 22V20.9443C10.0968 20.8433 9.21845 20.6066 8.39366 20.2459L7.86608 21.1599C7.58999 21.6382 6.97842 21.8022 6.5001 21.5261C6.02177 21.25 5.85783 20.6384 6.13392 20.1601L6.66162 19.2459C6.30029 18.9796 5.95727 18.6852 5.63604 18.364C5.31465 18.0426 5.02007 17.6994 4.75375 17.3378L3.84044 17.8658C3.36229 18.1422 2.75062 17.9786 2.47423 17.5004C2.19784 17.0223 2.3614 16.4106 2.83956 16.1342L3.75387 15.6057C3.3933 14.7811 3.15663 13.903 3.0557 13H2C1.44772 13 1 12.5523 1 12C1 11.4477 1.44772 11 2 11H3.0557C3.15663 10.097 3.3933 9.21888 3.75387 8.39427L2.83956 7.86577C2.3614 7.58938 2.19784 6.97771 2.47423 6.49956C2.75062 6.0214 3.36229 5.85784 3.84044 6.13423L4.75375 6.66216C5.02007 6.30063 5.31465 5.95743 5.63604 5.63604C5.95727 5.3148 6.30029 5.02036 6.66162 4.75415L6.13392 3.8399C5.85783 3.36158 6.02177 2.75001 6.5001 2.47392C6.97842 2.19783 7.58999 2.36177 7.86608 2.8401L8.39366 3.75413C9.21845 3.39342 10.0968 3.15666 11 3.0557V2C11 1.44772 11.4477 1 12 1ZM7.66949 6.50027C7.45348 6.67036 7.24663 6.85387 7.05025 7.05025C5.7375 8.36301 5 10.1435 5 12C5 13.8565 5.7375 15.637 7.05025 16.9497C7.24663 17.1461 7.45348 17.3296 7.66949 17.4997L9.71912 13.9487C9.25667 13.4075 9 12.717 9 12C9 11.283 9.25667 10.5925 9.71912 10.0513L7.66949 6.50027ZM11.4508 9.05068L9.40148 5.50018C10.2202 5.17286 11.1012 5 12 5C13.8565 5 15.637 5.7375 16.9497 7.05025C18.0245 8.12499 18.7137 9.51321 18.9282 11H14.8284C14.6807 10.5821 14.4407 10.1981 14.1213 9.87868C13.5587 9.31607 12.7957 9 12 9C11.8145 9 11.6307 9.01719 11.4508 9.05068ZM11.4634 11.1562C11.4756 11.1498 11.4878 11.1431 11.4999 11.1361C11.5124 11.1289 11.5246 11.1215 11.5366 11.1138C11.6783 11.0397 11.8371 11 12 11C12.2652 11 12.5196 11.1054 12.7071 11.2929C12.8946 11.4804 13 11.7348 13 12C13 12.2652 12.8946 12.5196 12.7071 12.7071C12.5196 12.8946 12.2652 13 12 13C11.8371 13 11.6783 12.9603 11.5366 12.8862C11.5246 12.8785 11.5124 12.8711 11.4999 12.8639C11.4878 12.8569 11.4756 12.8502 11.4633 12.8438C11.4022 12.8049 11.345 12.7592 11.2929 12.7071C11.1054 12.5196 11 12.2652 11 12C11 11.7348 11.1054 11.4804 11.2929 11.2929C11.345 11.2408 11.4022 11.1951 11.4634 11.1562ZM11.4508 14.9493L9.40148 18.4998C10.2202 18.8271 11.1012 19 12 19C13.8565 19 15.637 18.2625 16.9497 16.9497C18.0245 15.875 18.7137 14.4868 18.9282 13H14.8284C14.6807 13.4179 14.4407 13.8019 14.1213 14.1213C13.5587 14.6839 12.7957 15 12 15C11.8145 15 11.6307 14.9828 11.4508 14.9493Z" fill="currentColor" />
</svg>