<svg width="32" height="32" viewBox="0 0 32 32" fill="none" xmlns="http://www.w3.org/2000/svg">
<circle cx="16" cy="16" r="16" fill="#FC8C1B" fill-opacity="0.2"/>
<path fill-rule="evenodd" clip-rule="evenodd" d="M15.4909 9.4772C15.645 9.38614 15.8207 9.3381 15.9996 9.3381C16.1786 9.3381 16.3543 9.38614 16.5084 9.4772C16.6625 9.56826 16.7893 9.69901 16.8756 9.85579L16.8815 9.86663L18.8456 13.5953L21.6879 11.1604C21.6922 11.1567 21.6966 11.1531 21.701 11.1495C21.8652 11.0159 22.0675 10.9379 22.2789 10.9267C22.4903 10.9154 22.6997 10.9716 22.8772 11.087C23.0546 11.2024 23.1909 11.3711 23.2663 11.5689C23.3417 11.7666 23.3525 11.9832 23.297 12.1875L23.2962 12.1904L21.407 19.0206C21.3298 19.3 21.1635 19.5471 20.9336 19.7236C20.7036 19.9002 20.4223 19.997 20.1323 19.9993L20.127 19.9994L11.8683 19.9993C11.5781 19.9973 11.2965 19.9006 11.0662 19.724C10.8359 19.5474 10.6695 19.3004 10.5923 19.0206L8.70296 12.1881C8.64746 11.9839 8.6582 11.7673 8.73364 11.5695C8.80908 11.3718 8.94533 11.203 9.12276 11.0876C9.3002 10.9722 9.50968 10.9161 9.72104 10.9273C9.9324 10.9386 10.1348 11.0166 10.299 11.1501C10.3034 11.1537 10.3078 11.1574 10.3121 11.1611L13.1537 13.596L12.729 14.11L13.159 13.6082L13.7396 13.914L13.1537 13.596L15.1178 9.86667L15.1236 9.85579C15.21 9.69901 15.3368 9.56826 15.4909 9.4772ZM15.9997 11.0535L17.6698 14.224L17.6736 14.2312C17.7675 14.4042 17.8985 14.5543 18.0573 14.6707C18.216 14.7871 18.3985 14.8669 18.5918 14.9044C18.785 14.9419 18.9842 14.9361 19.1749 14.8875C19.3656 14.8389 19.5432 14.7486 19.695 14.6232L19.704 14.6156L21.7196 12.889L20.1218 18.6656L11.8776 18.666L10.2803 12.8898L12.2952 14.6162L12.3043 14.6239C12.456 14.7493 12.6336 14.8395 12.8244 14.8881C13.0151 14.9367 13.2143 14.9425 13.4075 14.905C13.6007 14.8676 13.7833 14.7878 13.942 14.6714C14.1008 14.555 14.2318 14.4049 14.3256 14.2319L15.9997 11.0535Z" fill="#FC8C1B"/>
<path fill-rule="evenodd" clip-rule="evenodd" d="M10.6663 22C10.6663 21.6318 10.9648 21.3333 11.333 21.3333H20.6663C21.0345 21.3333 21.333 21.6318 21.333 22C21.333 22.3682 21.0345 22.6667 20.6663 22.6667H11.333C10.9648 22.6667 10.6663 22.3682 10.6663 22Z" fill="#FC8C1B"/>
</svg>
