<svg width="32" height="32" viewBox="0 0 32 32" fill="none" xmlns="http://www.w3.org/2000/svg">
<circle cx="16" cy="16" r="16" fill="#FC8C1B" fill-opacity="0.2"/>
<g clip-path="url(#clip0_11472_5904)">
<path fill-rule="evenodd" clip-rule="evenodd" d="M9.25253 9.25246C9.62761 8.87739 10.1363 8.66667 10.6667 8.66667H15.4481C15.9784 8.66679 16.4872 8.87755 16.8622 9.2526C16.8621 9.25258 16.8622 9.25262 16.8622 9.2526L22.6663 15.0568C23.0915 15.4847 23.3302 16.0634 23.3302 16.6667C23.3302 17.2699 23.0915 17.8487 22.6663 18.2766L22.6648 18.2781L18.2782 22.6647L18.2767 22.6662C17.8487 23.0914 17.27 23.3301 16.6667 23.3301C16.0635 23.3301 15.4847 23.0914 15.0568 22.6662L15.0553 22.6647L9.25275 16.8621C9.25272 16.8621 9.25277 16.8622 9.25275 16.8621C8.87769 16.4872 8.66686 15.9785 8.66675 15.4481V10.6667C8.66675 10.1362 8.87746 9.62753 9.25253 9.25246ZM10.6667 10C10.4899 10 10.3204 10.0702 10.1953 10.1953C10.0703 10.3203 10.0001 10.4899 10.0001 10.6667V15.4479C10.0001 15.4478 10.0001 15.4479 10.0001 15.4479C10.0002 15.6246 10.0704 15.7942 10.1954 15.9192L15.9967 21.7204C15.9969 21.7207 15.9971 21.7209 15.9974 21.7211C16.1754 21.8977 16.416 21.9968 16.6667 21.9968C16.9175 21.9968 17.1581 21.8977 17.3361 21.7211C17.3364 21.7209 17.3366 21.7207 17.3368 21.7204L21.7205 17.3368C21.7207 17.3365 21.721 17.3363 21.7212 17.3361C21.8978 17.158 21.9968 16.9174 21.9968 16.6667C21.9968 16.4159 21.8978 16.1753 21.7212 15.9973C21.721 15.997 21.7207 15.9968 21.7205 15.9966L15.9193 10.1954C15.7944 10.0704 15.6248 10.0001 15.4481 10C15.448 10 15.4481 10 15.4481 10H10.6667Z" fill="#FC8C1B"/>
<path d="M13.0001 13.3333C13.1842 13.3333 13.3334 13.1841 13.3334 13C13.3334 12.8159 13.1842 12.6667 13.0001 12.6667C12.816 12.6667 12.6667 12.8159 12.6667 13C12.6667 13.1841 12.816 13.3333 13.0001 13.3333Z" fill="#FC8C1B"/>
<path fill-rule="evenodd" clip-rule="evenodd" d="M13.0001 13.3333C13.1842 13.3333 13.3334 13.1841 13.3334 13C13.3334 12.8159 13.1842 12.6667 13.0001 12.6667C12.816 12.6667 12.6667 12.8159 12.6667 13C12.6667 13.1841 12.816 13.3333 13.0001 13.3333ZM12.0001 13C12.0001 12.4477 12.4478 12 13.0001 12C13.5524 12 14.0001 12.4477 14.0001 13C14.0001 13.5523 13.5524 14 13.0001 14C12.4478 14 12.0001 13.5523 12.0001 13Z" fill="#FC8C1B"/>
</g>
<defs>
<clipPath id="clip0_11472_5904">
<rect width="16" height="16" fill="white" transform="translate(8 8)"/>
</clipPath>
</defs>
</svg>
