<svg width="32" height="32" viewBox="0 0 32 32" fill="none" xmlns="http://www.w3.org/2000/svg">
<circle cx="16" cy="16" r="16" fill="#3F1FF0" fill-opacity="0.2"/>
<path fill-rule="evenodd" clip-rule="evenodd" d="M16 10.6667C14.8954 10.6667 14 11.5621 14 12.6667C14 13.7712 14.8954 14.6667 16 14.6667C17.1045 14.6667 18 13.7712 18 12.6667C18 11.5621 17.1045 10.6667 16 10.6667ZM12.6666 12.6667C12.6666 10.8257 14.159 9.33333 16 9.33333C17.8409 9.33333 19.3333 10.8257 19.3333 12.6667C19.3333 14.5076 17.8409 16 16 16C14.159 16 12.6666 14.5076 12.6666 12.6667ZM11.6429 18.3096C12.2681 17.6845 13.1159 17.3333 14 17.3333H18C18.884 17.3333 19.7319 17.6845 20.357 18.3096C20.9821 18.9348 21.3333 19.7826 21.3333 20.6667V22C21.3333 22.3682 21.0348 22.6667 20.6666 22.6667C20.2984 22.6667 20 22.3682 20 22V20.6667C20 20.1362 19.7892 19.6275 19.4142 19.2524C19.0391 18.8774 18.5304 18.6667 18 18.6667H14C13.4695 18.6667 12.9608 18.8774 12.5857 19.2524C12.2107 19.6275 12 20.1362 12 20.6667V22C12 22.3682 11.7015 22.6667 11.3333 22.6667C10.9651 22.6667 10.6666 22.3682 10.6666 22V20.6667C10.6666 19.7826 11.0178 18.9348 11.6429 18.3096Z" fill="#3F1FF0"/>
</svg>
