<svg width="32" height="32" viewBox="0 0 32 32" fill="none" xmlns="http://www.w3.org/2000/svg">
<circle cx="16" cy="16" r="16" fill="#F01FAA" fill-opacity="0.2"/>
<g clip-path="url(#clip0_11472_6356)">
<path fill-rule="evenodd" clip-rule="evenodd" d="M10.6667 10C10.2986 10 10.0001 10.2985 10.0001 10.6667V13.3333C10.0001 13.7015 10.2986 14 10.6667 14H13.3334C13.7016 14 14.0001 13.7015 14.0001 13.3333V10.6667C14.0001 10.2985 13.7016 10 13.3334 10H10.6667ZM8.66675 10.6667C8.66675 9.5621 9.56218 8.66667 10.6667 8.66667H13.3334C14.438 8.66667 15.3334 9.5621 15.3334 10.6667V13.3333C15.3334 14.4379 14.438 15.3333 13.3334 15.3333H10.6667C9.56218 15.3333 8.66675 14.4379 8.66675 13.3333V10.6667Z" fill="#F01FAA"/>
<path fill-rule="evenodd" clip-rule="evenodd" d="M16.6667 9.33334C16.6667 8.96515 16.9652 8.66667 17.3334 8.66667C18.4349 8.66667 19.3334 9.56515 19.3334 10.6667V13.3333C19.3334 14.4349 18.4349 15.3333 17.3334 15.3333C16.9652 15.3333 16.6667 15.0349 16.6667 14.6667C16.6667 14.2985 16.9652 14 17.3334 14C17.6986 14 18.0001 13.6985 18.0001 13.3333V10.6667C18.0001 10.3015 17.6986 10 17.3334 10C16.9652 10 16.6667 9.70153 16.6667 9.33334Z" fill="#F01FAA"/>
<path fill-rule="evenodd" clip-rule="evenodd" d="M20.6667 9.33334C20.6667 8.96515 20.9652 8.66667 21.3334 8.66667C22.4349 8.66667 23.3334 9.56515 23.3334 10.6667V13.3333C23.3334 14.4349 22.4349 15.3333 21.3334 15.3333C20.9652 15.3333 20.6667 15.0349 20.6667 14.6667C20.6667 14.2985 20.9652 14 21.3334 14C21.6986 14 22.0001 13.6985 22.0001 13.3333V10.6667C22.0001 10.3015 21.6986 10 21.3334 10C20.9652 10 20.6667 9.70153 20.6667 9.33334Z" fill="#F01FAA"/>
<path fill-rule="evenodd" clip-rule="evenodd" d="M9.33341 16.6667C9.7016 16.6667 10.0001 16.9651 10.0001 17.3333V18C10.0001 18.7651 10.5683 19.3333 11.3334 19.3333H14.6667C15.0349 19.3333 15.3334 19.6318 15.3334 20C15.3334 20.3682 15.0349 20.6667 14.6667 20.6667H11.3334C9.83189 20.6667 8.66675 19.5015 8.66675 18V17.3333C8.66675 16.9651 8.96522 16.6667 9.33341 16.6667Z" fill="#F01FAA"/>
<path fill-rule="evenodd" clip-rule="evenodd" d="M12.1953 17.5286C12.4557 17.2683 12.8778 17.2683 13.1382 17.5286L15.1382 19.5286C15.3985 19.7889 15.3985 20.2111 15.1382 20.4714L13.1382 22.4714C12.8778 22.7318 12.4557 22.7318 12.1953 22.4714C11.935 22.2111 11.935 21.7889 12.1953 21.5286L13.7239 20L12.1953 18.4714C11.935 18.2111 11.935 17.7889 12.1953 17.5286Z" fill="#F01FAA"/>
<path fill-rule="evenodd" clip-rule="evenodd" d="M18.6667 18C18.2986 18 18.0001 18.2985 18.0001 18.6667V21.3333C18.0001 21.7015 18.2986 22 18.6667 22H21.3334C21.7016 22 22.0001 21.7015 22.0001 21.3333V18.6667C22.0001 18.2985 21.7016 18 21.3334 18H18.6667ZM16.6667 18.6667C16.6667 17.5621 17.5622 16.6667 18.6667 16.6667H21.3334C22.438 16.6667 23.3334 17.5621 23.3334 18.6667V21.3333C23.3334 22.4379 22.438 23.3333 21.3334 23.3333H18.6667C17.5622 23.3333 16.6667 22.4379 16.6667 21.3333V18.6667Z" fill="#F01FAA"/>
</g>
<defs>
<clipPath id="clip0_11472_6356">
<rect width="16" height="16" fill="white" transform="translate(8 8)"/>
</clipPath>
</defs>
</svg>
