<svg width="16" height="12" viewBox="0 0 16 12" fill="none" xmlns="http://www.w3.org/2000/svg">
<path fill-rule="evenodd" clip-rule="evenodd" d="M2.07452 5.99996C2.1292 6.1048 2.2014 6.23664 2.29157 6.38814C2.53424 6.79581 2.90292 7.33879 3.40516 7.87966C4.41003 8.96183 5.91206 9.99996 7.99996 9.99996C10.0879 9.99996 11.5899 8.96183 12.5948 7.87966C13.097 7.33879 13.4657 6.79581 13.7084 6.38814C13.7985 6.23664 13.8707 6.1048 13.9254 5.99996C13.8707 5.89512 13.7985 5.76328 13.7084 5.61178C13.4657 5.2041 13.097 4.66113 12.5948 4.12026C11.5899 3.03809 10.0879 1.99996 7.99996 1.99996C5.91206 1.99996 4.41003 3.03809 3.40516 4.12026C2.90292 4.66113 2.53424 5.2041 2.29157 5.61178C2.2014 5.76328 2.1292 5.89512 2.07452 5.99996ZM14.6666 5.99996C15.2794 5.73735 15.2793 5.73708 15.2792 5.73679L15.2782 5.73446L15.2762 5.72987L15.2699 5.71568C15.2647 5.70403 15.2575 5.68804 15.2483 5.66799C15.2297 5.62792 15.203 5.57158 15.1679 5.5013C15.0976 5.36084 14.9935 5.16409 14.8541 4.9298C14.5759 4.46248 14.1529 3.83879 13.5718 3.21299C12.41 1.96183 10.5787 0.666626 7.99996 0.666626C5.4212 0.666626 3.58989 1.96183 2.4281 3.21299C1.847 3.83879 1.42402 4.46248 1.14585 4.9298C1.00639 5.16409 0.902292 5.36084 0.832062 5.5013C0.796922 5.57158 0.770186 5.62792 0.751673 5.66799C0.742415 5.68804 0.735206 5.70403 0.730025 5.71568L0.723768 5.72987L0.721774 5.73446L0.721059 5.73612L0.720772 5.73679C0.720648 5.73708 0.720531 5.73735 1.33329 5.99996L0.720772 5.73679C0.6489 5.90449 0.64866 6.09487 0.720531 6.26257L1.33329 5.99996C0.720531 6.26257 0.720408 6.26228 0.720531 6.26257L0.721059 6.2638L0.721774 6.26546L0.723768 6.27004L0.730025 6.28424C0.735206 6.29589 0.742415 6.31188 0.751673 6.33192C0.770186 6.372 0.796922 6.42834 0.832062 6.49862C0.902292 6.63908 1.00639 6.83582 1.14585 7.07012C1.42402 7.53744 1.847 8.16113 2.4281 8.78693C3.58989 10.0381 5.4212 11.3333 7.99996 11.3333C10.5787 11.3333 12.41 10.0381 13.5718 8.78693C14.1529 8.16113 14.5759 7.53744 14.8541 7.07012C14.9935 6.83582 15.0976 6.63908 15.1679 6.49862C15.203 6.42834 15.2297 6.372 15.2483 6.33192C15.2575 6.31188 15.2647 6.29589 15.2699 6.28424L15.2762 6.27004L15.2782 6.26546L15.2792 6.26313C15.2793 6.26284 15.2794 6.26257 14.6666 5.99996ZM14.6666 5.99996L15.2792 6.26313C15.351 6.09543 15.351 5.90449 15.2792 5.73679L14.6666 5.99996ZM7.99996 4.66663C7.26358 4.66663 6.66663 5.26358 6.66663 5.99996C6.66663 6.73634 7.26358 7.33329 7.99996 7.33329C8.73634 7.33329 9.33329 6.73634 9.33329 5.99996C9.33329 5.26358 8.73634 4.66663 7.99996 4.66663ZM5.33329 5.99996C5.33329 4.5272 6.5272 3.33329 7.99996 3.33329C9.47272 3.33329 10.6666 4.5272 10.6666 5.99996C10.6666 7.47272 9.47272 8.66663 7.99996 8.66663C6.5272 8.66663 5.33329 7.47272 5.33329 5.99996Z" fill="#71717A"/>
</svg>
