<svg width="35" height="34" viewBox="0 0 35 34" fill="none" xmlns="http://www.w3.org/2000/svg">
<path fill-rule="evenodd" clip-rule="evenodd" d="M1.26714 1H10.6987L18.985 12.7202L29.2924 1H32.1219L20.1977 14.5638L33.1998 32.9342H23.6549L14.9429 20.5556L3.96187 33H1.19977L13.6629 18.7778L1.26714 1ZM5.03977 3.10709L9.35135 3.04125L29.2924 30.9589H24.9808L5.03977 3.10709Z" fill="#5DA7E5"/>
<path d="M10.6987 1L11.107 0.71135L10.9576 0.5H10.6987V1ZM1.26714 1V0.5H0.308961L0.856994 1.28598L1.26714 1ZM18.985 12.7202L18.5768 13.0088L18.9423 13.5259L19.3605 13.0504L18.985 12.7202ZM29.2924 1V0.5H29.0663L28.9169 0.669801L29.2924 1ZM32.1219 1L32.4974 1.33013L33.2272 0.5H32.1219V1ZM20.1977 14.5638L19.8221 14.2337L19.5614 14.5303L19.7895 14.8526L20.1977 14.5638ZM33.1998 32.9342V33.4342H34.1662L33.6079 32.6453L33.1998 32.9342ZM23.6549 32.9342L23.246 33.2219L23.3954 33.4342H23.6549V32.9342ZM14.9429 20.5556L15.3518 20.2678L14.9872 19.7497L14.568 20.2247L14.9429 20.5556ZM3.96187 33V33.5H4.1875L4.33678 33.3308L3.96187 33ZM1.19977 33L0.823725 32.6705L0.0967926 33.5H1.19977V33ZM13.6629 18.7778L14.039 19.1073L14.297 18.8129L14.0731 18.4918L13.6629 18.7778ZM9.35135 3.04125L9.75821 2.75063L9.60584 2.53731L9.34371 2.54131L9.35135 3.04125ZM5.03977 3.10709L5.03213 2.60715L4.07732 2.62173L4.63323 3.39817L5.03977 3.10709ZM29.2924 30.9589V31.4589H30.264L29.6993 30.6683L29.2924 30.9589ZM24.9808 30.9589L24.5743 31.25L24.7239 31.4589H24.9808V30.9589ZM10.6987 0.5H1.26714V1.5H10.6987V0.5ZM19.3933 12.4315L11.107 0.71135L10.2904 1.28865L18.5768 13.0088L19.3933 12.4315ZM28.9169 0.669801L18.6096 12.39L19.3605 13.0504L29.6679 1.3302L28.9169 0.669801ZM32.1219 0.5H29.2924V1.5H32.1219V0.5ZM20.5732 14.8939L32.4974 1.33013L31.7464 0.669872L19.8221 14.2337L20.5732 14.8939ZM33.6079 32.6453L20.6058 14.2749L19.7895 14.8526L32.7916 33.223L33.6079 32.6453ZM23.6549 33.4342H33.1998V32.4342H23.6549V33.4342ZM14.534 20.8433L23.246 33.2219L24.0638 32.6464L15.3518 20.2678L14.534 20.8433ZM4.33678 33.3308L15.3178 20.8864L14.568 20.2247L3.58696 32.6692L4.33678 33.3308ZM1.19977 33.5H3.96187V32.5H1.19977V33.5ZM13.2869 18.4482L0.823725 32.6705L1.57581 33.3295L14.039 19.1073L13.2869 18.4482ZM0.856994 1.28598L13.2528 19.0638L14.0731 18.4918L1.67728 0.714023L0.856994 1.28598ZM9.34371 2.54131L5.03213 2.60715L5.0474 3.60704L9.35898 3.54119L9.34371 2.54131ZM29.6993 30.6683L9.75821 2.75063L8.94448 3.33187L28.8855 31.2496L29.6993 30.6683ZM24.9808 31.4589H29.2924V30.4589H24.9808V31.4589ZM4.63323 3.39817L24.5743 31.25L25.3874 30.6679L5.44631 2.81602L4.63323 3.39817Z" fill="#5DA7E5"/>
</svg>
