<svg width="45" height="32" viewBox="0 0 45 32" fill="none" xmlns="http://www.w3.org/2000/svg">
<mask id="path-1-inside-1_11507_4218" fill="white">
<path fill-rule="evenodd" clip-rule="evenodd" d="M1.03733 5.87813C1.23289 4.46262 1.99744 0.832652 7.90031 0.65116C7.90031 0.651161 7.901 0.651091 7.90238 0.650952C8.09566 0.63141 21.8068 -0.754849 37.1658 0.578563C41.1484 0.723877 43.602 2.24841 44.2065 5.98716C45.06 10.1978 45.4511 20.1072 44.2065 26.2054C43.6376 28.71 42.5708 30.8879 38.0192 31.3598C29.9116 32.1583 16.5413 32.2672 7.6514 31.3598C4.16657 31.1057 1.7602 30.0798 1.07289 26.2417C0.468383 22.8659 -0.527282 17.2034 1.03733 5.87813ZM18.4399 22.097L30.9199 16.0001L18.4399 9.90326V22.097Z"/>
</mask>
<path fill-rule="evenodd" clip-rule="evenodd" d="M1.03733 5.87813C1.23289 4.46262 1.99744 0.832652 7.90031 0.65116C7.90031 0.651161 7.901 0.651091 7.90238 0.650952C8.09566 0.63141 21.8068 -0.754849 37.1658 0.578563C41.1484 0.723877 43.602 2.24841 44.2065 5.98716C45.06 10.1978 45.4511 20.1072 44.2065 26.2054C43.6376 28.71 42.5708 30.8879 38.0192 31.3598C29.9116 32.1583 16.5413 32.2672 7.6514 31.3598C4.16657 31.1057 1.7602 30.0798 1.07289 26.2417C0.468383 22.8659 -0.527282 17.2034 1.03733 5.87813ZM18.4399 22.097L30.9199 16.0001L18.4399 9.90326V22.097Z" fill="#5DA7E5"/>
<path d="M7.90031 0.65116H8.90031V-0.380059L7.86958 -0.348368L7.90031 0.65116ZM1.03733 5.87813L2.02793 6.01499H2.02793L1.03733 5.87813ZM7.90238 0.650952L7.80179 -0.343976L7.80178 -0.343975L7.90238 0.650952ZM37.1658 0.578563L37.0793 1.57482L37.1042 1.57698L37.1293 1.5779L37.1658 0.578563ZM44.2065 5.98716L43.2194 6.14677L43.2225 6.16636L43.2265 6.1858L44.2065 5.98716ZM44.2065 26.2054L45.1817 26.4269L45.1841 26.4162L45.1863 26.4054L44.2065 26.2054ZM38.0192 31.3598L38.1172 32.355L38.1223 32.3544L38.0192 31.3598ZM7.6514 31.3598L7.75295 30.3649L7.73855 30.3635L7.72412 30.3624L7.6514 31.3598ZM1.07289 26.2417L2.05724 26.0654L1.07289 26.2417ZM30.9199 16.0001L31.3589 16.8986L33.1981 16.0001L31.3589 15.1016L30.9199 16.0001ZM18.4399 22.097H17.4399V23.6984L18.8788 22.9955L18.4399 22.097ZM18.4399 9.90326L18.8788 9.00475L17.4399 8.30179V9.90326H18.4399ZM7.86958 -0.348368C4.69914 -0.250888 2.74375 0.78737 1.57084 2.14933C0.426001 3.4787 0.152453 4.97612 0.0467435 5.74128L2.02793 6.01499C2.11777 5.36463 2.32428 4.33931 3.08632 3.45445C3.82029 2.60217 5.19862 1.7347 7.93105 1.65069L7.86958 -0.348368ZM7.80178 -0.343975C7.80142 -0.343939 7.80116 -0.343912 7.80094 -0.34389C7.80083 -0.343879 7.80076 -0.343871 7.80069 -0.343865C7.80063 -0.343859 7.80061 -0.343857 7.80062 -0.343857C7.80062 -0.343858 7.80064 -0.343859 7.80067 -0.343862C7.80069 -0.343865 7.80074 -0.34387 7.80081 -0.343876C7.8009 -0.343886 7.80118 -0.343914 7.80157 -0.343953C7.80172 -0.343967 7.80291 -0.344086 7.80444 -0.344234C7.80487 -0.344274 7.80734 -0.344514 7.8105 -0.344799C7.81139 -0.344879 7.81639 -0.345333 7.82276 -0.345828C7.82457 -0.345969 7.83462 -0.346762 7.84743 -0.347441C7.85107 -0.347634 7.87129 -0.34875 7.89704 -0.348835C7.90452 -0.348859 7.94489 -0.349164 7.99598 -0.344254C8.02834 -0.34061 8.12229 -0.323891 8.18314 -0.308012C8.33182 -0.250949 8.7861 0.187073 8.90031 0.65116H6.90031C7.01452 1.11525 7.46881 1.55327 7.61749 1.61033C7.67833 1.62621 7.77228 1.64293 7.80465 1.64657C7.85574 1.65148 7.89611 1.65118 7.90358 1.65115C7.92934 1.65107 7.94956 1.64995 7.95319 1.64976C7.96601 1.64908 7.97606 1.64829 7.97787 1.64815C7.98424 1.64765 7.98924 1.6472 7.99014 1.64712C7.99331 1.64683 7.9958 1.64659 7.99625 1.64655C7.99782 1.6464 7.99908 1.64627 7.99931 1.64625C8.00012 1.64617 8.00083 1.6461 8.00105 1.64607C8.00163 1.64602 8.00239 1.64594 8.00299 1.64588L7.80178 -0.343975ZM37.2522 -0.41769C21.8004 -1.75917 8.01637 -0.365671 7.80179 -0.343976L8.00297 1.64588C8.17495 1.62849 21.8133 0.249474 37.0793 1.57482L37.2522 -0.41769ZM45.1937 5.82754C44.8586 3.75478 43.9842 2.1804 42.5427 1.12773C41.1311 0.0969417 39.2962 -0.34437 37.2022 -0.420772L37.1293 1.5779C39.018 1.64681 40.4012 2.04042 41.3632 2.74292C42.2953 3.42353 42.95 4.48079 43.2194 6.14677L45.1937 5.82754ZM45.1863 26.4054C45.8292 23.2554 46.0425 19.1725 45.9932 15.3755C45.9439 11.5797 45.6308 7.98022 45.1866 5.78851L43.2265 6.1858C43.6357 8.20471 43.9449 11.6653 43.9934 15.4014C44.0419 19.1363 43.8284 23.0572 43.2267 26.0054L45.1863 26.4054ZM38.1223 32.3544C40.545 32.1033 42.1972 31.3803 43.3172 30.2481C44.4242 29.1293 44.8849 27.7336 45.1817 26.4269L43.2314 25.9839C42.9593 27.1818 42.602 28.1274 41.8955 28.8415C41.202 29.5425 40.045 30.1444 37.9161 30.3651L38.1223 32.3544ZM7.54985 32.3546C16.5116 33.2694 29.9491 33.1595 38.1172 32.3549L37.9212 30.3646C29.8742 31.1572 16.5709 31.265 7.75295 30.3649L7.54985 32.3546ZM0.0885524 26.4179C0.468224 28.5381 1.35654 30.0183 2.74862 30.9702C4.09357 31.8899 5.78294 32.2262 7.57868 32.3571L7.72412 30.3624C6.03503 30.2393 4.77879 29.9356 3.87754 29.3193C3.0234 28.7352 2.36487 27.7833 2.05724 26.0654L0.0885524 26.4179ZM0.0467435 5.74128C-1.53565 17.1952 -0.52951 22.9665 0.0885524 26.4179L2.05724 26.0654C1.46628 22.7653 0.48109 17.2115 2.02793 6.01499L0.0467435 5.74128ZM30.481 15.1016L18.0009 21.1985L18.8788 22.9955L31.3589 16.8986L30.481 15.1016ZM18.0009 10.8018L30.481 16.8986L31.3589 15.1016L18.8788 9.00475L18.0009 10.8018ZM19.4399 22.097V9.90326H17.4399V22.097H19.4399Z" fill="#5DA7E5" mask="url(#path-1-inside-1_11507_4218)"/>
</svg>
